G04*
G04 #@! TF.GenerationSoftware,Altium Limited,Altium Designer,25.5.2 (35)*
G04*
G04 Layer_Color=65535*
%FSLAX44Y44*%
%MOMM*%
G71*
G04*
G04 #@! TF.SameCoordinates,A89DEE48-1FC4-4ACA-BA4E-A691071BA7A7*
G04*
G04*
G04 #@! TF.FilePolarity,Positive*
G04*
G01*
G75*
%ADD13C,0.1016*%
%ADD14C,0.2540*%
%ADD15C,0.2000*%
%ADD16C,0.1778*%
%ADD49C,0.1300*%
%ADD50C,0.3000*%
D13*
X275316Y391728D02*
D03*
D14*
X292128Y384204D02*
X293461Y385537D01*
X296127D01*
X297460Y384204D01*
Y378873D01*
X296127Y377540D01*
X293461D01*
X292128Y378873D01*
Y381539D01*
X294794D01*
X289463Y377540D02*
Y385537D01*
X284131Y377540D01*
Y385537D01*
X281465D02*
Y377540D01*
X277467D01*
X276134Y378873D01*
Y384204D01*
X277467Y385537D01*
X281465D01*
X312128D02*
X317460D01*
Y381539D01*
X314794Y382872D01*
X313461D01*
X312128Y381539D01*
Y378873D01*
X313461Y377540D01*
X316127D01*
X317460Y378873D01*
X309463Y382872D02*
X306797Y377540D01*
X304131Y382872D01*
X192460Y380869D02*
Y370872D01*
X187462D01*
X185795Y372538D01*
Y374204D01*
X187462Y375871D01*
X192460D01*
X187462D01*
X185795Y377537D01*
Y379203D01*
X187462Y380869D01*
X192460D01*
X182463Y377537D02*
Y372538D01*
X180797Y370872D01*
X175799D01*
Y369206D01*
X177465Y367540D01*
X179131D01*
X175799Y370872D02*
Y377537D01*
X162470Y370872D02*
Y380869D01*
X157471D01*
X155805Y379203D01*
Y375871D01*
X157471Y374204D01*
X162470D01*
X159137D02*
X155805Y370872D01*
X152473Y372538D02*
X150807Y370872D01*
X147474D01*
X145808Y372538D01*
Y379203D01*
X147474Y380869D01*
X150807D01*
X152473Y379203D01*
Y377537D01*
X150807Y375871D01*
X145808D01*
X137478Y380869D02*
X140810D01*
X142476Y379203D01*
Y372538D01*
X140810Y370872D01*
X137478D01*
X135812Y372538D01*
Y379203D01*
X137478Y380869D01*
X127481D02*
X130813D01*
X132479Y379203D01*
Y372538D01*
X130813Y370872D01*
X127481D01*
X125815Y372538D01*
Y379203D01*
X127481Y380869D01*
X122483D02*
X115818D01*
X119150D01*
Y370872D01*
X265795Y27537D02*
X272460D01*
Y22538D01*
X269128D01*
X272460D01*
Y17540D01*
X262463Y24204D02*
Y17540D01*
Y20872D01*
X260797Y22538D01*
X259131Y24204D01*
X257465D01*
X250800Y17540D02*
X247468D01*
X245802Y19206D01*
Y22538D01*
X247468Y24204D01*
X250800D01*
X252466Y22538D01*
Y19206D01*
X250800Y17540D01*
X242470D02*
Y24204D01*
X240804D01*
X239137Y22538D01*
Y17540D01*
Y22538D01*
X237471Y24204D01*
X235805Y22538D01*
Y17540D01*
X215812Y25871D02*
X217478Y27537D01*
X220810D01*
X222476Y25871D01*
Y24204D01*
X220810Y22538D01*
X217478D01*
X215812Y20872D01*
Y19206D01*
X217478Y17540D01*
X220810D01*
X222476Y19206D01*
X212479Y17540D02*
X209147D01*
X210813D01*
Y24204D01*
X212479D01*
X204149Y27537D02*
Y17540D01*
X199150D01*
X197484Y19206D01*
Y20872D01*
Y22538D01*
X199150Y24204D01*
X204149D01*
X189153Y17540D02*
X192486D01*
X194152Y19206D01*
Y22538D01*
X192486Y24204D01*
X189153D01*
X187487Y22538D01*
Y20872D01*
X194152D01*
X184155Y24204D02*
Y17540D01*
Y20872D01*
X182489Y22538D01*
X180823Y24204D01*
X179157D01*
X174158Y17540D02*
X170826D01*
X172492D01*
Y24204D01*
X174158D01*
X164162D02*
X160829D01*
X159163Y22538D01*
Y17540D01*
X164162D01*
X165828Y19206D01*
X164162Y20872D01*
X159163D01*
X145834Y24204D02*
Y19206D01*
X144168Y17540D01*
X142502Y19206D01*
X140836Y17540D01*
X139170Y19206D01*
Y24204D01*
X135837Y17540D02*
X132505D01*
X134171D01*
Y24204D01*
X135837D01*
X125841Y25871D02*
Y24204D01*
X127507D01*
X124174D01*
X125841D01*
Y19206D01*
X124174Y17540D01*
X119176Y27537D02*
Y17540D01*
Y22538D01*
X117510Y24204D01*
X114178D01*
X112512Y22538D01*
Y17540D01*
X99183D02*
X95850D01*
X97516D01*
Y27537D01*
X99183D01*
X89186Y17540D02*
X85854D01*
X84187Y19206D01*
Y22538D01*
X85854Y24204D01*
X89186D01*
X90852Y22538D01*
Y19206D01*
X89186Y17540D01*
X80855Y24204D02*
X77523Y17540D01*
X74191Y24204D01*
X65860Y17540D02*
X69192D01*
X70858Y19206D01*
Y22538D01*
X69192Y24204D01*
X65860D01*
X64194Y22538D01*
Y20872D01*
X70858D01*
D15*
X423328Y239620D02*
G03*
X423328Y239620I-1000J0D01*
G01*
Y123620D02*
G03*
X423328Y123620I-1000J0D01*
G01*
Y180620D02*
G03*
X423328Y180620I-1000J0D01*
G01*
D16*
X301896Y189941D02*
X302169Y189123D01*
X517594Y165087D02*
X518139Y165632D01*
X532921Y133508D02*
Y139235D01*
X312205Y137053D02*
X312478Y136780D01*
X310070Y115501D02*
X313570D01*
X312478Y136780D02*
X313296Y136508D01*
X501943Y320982D02*
X502580Y321618D01*
X303969Y187214D02*
X304242Y187760D01*
X518139Y139235D02*
X521685D01*
X301787Y161635D02*
X303424Y162181D01*
X307511Y87539D02*
X308147Y87857D01*
X505329Y247689D02*
X505647Y247052D01*
X315751Y210978D02*
Y216705D01*
X305224Y214523D02*
X305496Y215341D01*
X532648Y211071D02*
X532921Y211890D01*
X310133Y160544D02*
Y164635D01*
X508957Y285003D02*
Y285957D01*
X504313Y265393D02*
X505904D01*
X308496Y235108D02*
X309314Y235381D01*
X310133Y315672D02*
Y316217D01*
X531285Y190035D02*
X531830Y189762D01*
X308769Y133508D02*
X309314Y133780D01*
X304647Y86266D02*
X304965Y86584D01*
X306314Y262596D02*
X306860Y262051D01*
X308060Y288542D02*
X308333Y289360D01*
X311387Y185578D02*
Y191305D01*
X306860Y311581D02*
X307678Y311308D01*
X523758Y163178D02*
X524576Y162905D01*
X523485Y139235D02*
X527303Y133508D01*
X302370Y108819D02*
X303325D01*
X504821Y284366D02*
X505139Y283730D01*
X299974Y60250D02*
X300292Y59614D01*
X307514Y189396D02*
X307787Y189941D01*
X505812Y165632D02*
X506630Y165905D01*
X303969Y164362D02*
X304514Y163817D01*
X523485Y187581D02*
X523758Y187308D01*
X509465Y245462D02*
Y246734D01*
X306860Y267233D02*
X307405Y267505D01*
X299605Y211796D02*
Y212614D01*
X523212Y213526D02*
Y214344D01*
X300779Y112319D02*
X301098Y112637D01*
X505267Y268765D02*
X505586Y268129D01*
X307405Y261778D02*
X308496D01*
X304242Y291542D02*
X304514Y292087D01*
X509085Y209708D02*
Y215435D01*
X300461Y111365D02*
X300779Y112319D01*
X508307Y319072D02*
Y320345D01*
X306042Y240017D02*
X306587Y240562D01*
X293551Y133508D02*
X294096Y134053D01*
X529648Y160450D02*
X530194Y160178D01*
X517594Y160996D02*
X518139Y160450D01*
X316901Y59614D02*
X317219Y60250D01*
X317537Y61205D02*
Y62795D01*
X507989Y305645D02*
X508307Y306600D01*
X504503Y277175D02*
X508957Y279084D01*
X298896Y191033D02*
X299442Y191305D01*
X523485Y214890D02*
X523758Y215163D01*
X531285Y215435D02*
X531830Y215163D01*
X518957Y184308D02*
X520048D01*
X502783Y239543D02*
X503102Y238589D01*
X314114Y240835D02*
X314660Y240562D01*
X295732Y139235D02*
X296278D01*
X300696Y317035D02*
X304514D01*
X517594Y214617D02*
X518139Y215163D01*
X312478Y162181D02*
X313296Y161908D01*
X311520Y87539D02*
X312474Y87221D01*
X307951Y216705D02*
X308496Y216432D01*
X315751Y287178D02*
Y292905D01*
X301242Y164362D02*
X302060Y164635D01*
X308465Y88175D02*
X308783Y88811D01*
X504821Y293657D02*
Y294612D01*
X505647Y247052D02*
X506283Y245143D01*
X501767Y270356D02*
X502086Y271311D01*
X315751Y237290D02*
Y238653D01*
X300696Y213705D02*
X302333Y214251D01*
X518685Y212435D02*
X520321Y212981D01*
Y187581D02*
X520867Y187853D01*
X507685Y287548D02*
X508321Y287230D01*
X502722Y264756D02*
X503358Y265074D01*
X309314Y235381D02*
X309860Y235926D01*
X307678Y317035D02*
X308769D01*
X532376Y189217D02*
X532648Y188671D01*
X309860Y134326D02*
X310133Y135144D01*
X304329Y84675D02*
X304965Y84039D01*
X306042Y263142D02*
X306314Y262596D01*
X307787Y287996D02*
X308060Y288542D01*
X309587Y185578D02*
Y191305D01*
X304514Y287996D02*
X305060Y287451D01*
X524576Y162905D02*
X527030D01*
X529103Y137598D02*
Y138144D01*
X303151Y137326D02*
X305060D01*
X508639Y284048D02*
X508957Y285003D01*
X499648Y184308D02*
X503466Y190035D01*
X307242Y189123D02*
X307514Y189396D01*
X505539Y165360D02*
X505812Y165632D01*
X304514Y163271D02*
Y163817D01*
X523758Y187308D02*
X524576Y187035D01*
X507556Y243870D02*
X508511D01*
X306042Y266142D02*
X306314Y266687D01*
X300969Y210978D02*
X302060D01*
X532648Y214072D02*
X532921Y213253D01*
X301734Y112956D02*
X302688D01*
X505586Y268129D02*
X505904Y267811D01*
X308496Y240835D02*
X309314Y240562D01*
X305060Y292633D02*
X305605Y292905D01*
X505539Y215435D02*
X509085D01*
X300461Y110728D02*
X300779Y109774D01*
X507989Y320982D02*
X508307Y320345D01*
X306587Y237563D02*
X307132Y237835D01*
X292460Y133780D02*
X293005Y133508D01*
X529103Y165087D02*
X529648Y165632D01*
X518139Y160450D02*
X518957Y160178D01*
X316264Y58977D02*
X316901Y59614D01*
X312764Y61205D02*
X314355D01*
X501625Y308827D02*
X508307D01*
X504503Y280993D02*
X508957Y279084D01*
X300533Y191305D02*
X301078Y191033D01*
X523758Y212708D02*
X524576Y212435D01*
X531830Y215163D02*
X532376Y214617D01*
X518139Y189762D02*
X518957Y190035D01*
X503102Y238589D02*
X503738Y237952D01*
X312478Y240562D02*
X313024Y240835D01*
X523485Y212981D02*
X523758Y212708D01*
X296005Y137326D02*
X296551D01*
X306860Y313763D02*
X307405Y314035D01*
X523212Y214344D02*
X523485Y214890D01*
X312478Y161635D02*
X313296Y161908D01*
X314355Y65341D02*
X315628D01*
X311933Y263414D02*
X312205Y263960D01*
X313842Y292905D02*
X315751D01*
X302169Y187760D02*
Y189123D01*
X506630Y165905D02*
X509085D01*
X508639Y286912D02*
X508957Y285957D01*
X503358Y265074D02*
X504313Y265393D01*
X311660Y236472D02*
X311933Y235926D01*
X301883Y58659D02*
X304110D01*
X531830Y184580D02*
X532376Y185126D01*
X306860Y133508D02*
Y137326D01*
X304965Y84039D02*
X305920Y83721D01*
X306860Y262051D02*
X307405Y261778D01*
X309314Y212341D02*
X309587Y213160D01*
X304242Y288542D02*
X304514Y287996D01*
X523212Y163996D02*
X523485Y163451D01*
X530466Y139235D02*
X532921D01*
X303969Y133780D02*
X304242Y134599D01*
X502580Y305009D02*
X503216Y304691D01*
X305060Y188305D02*
X306696Y188850D01*
X505266Y164814D02*
X505539Y165360D01*
X303969Y162453D02*
X304242Y162726D01*
X523212Y188126D02*
Y188944D01*
X503102Y244507D02*
X503738Y243870D01*
X314387Y267505D02*
X315205Y267233D01*
X305224Y213160D02*
Y214523D01*
X532376Y210526D02*
X532648Y211071D01*
X300779Y115501D02*
X302688Y112956D01*
X507353Y317800D02*
X507989Y318436D01*
X505904Y267811D02*
X506540Y267492D01*
X309587Y238926D02*
X309860Y239471D01*
X304514Y292087D02*
X305060Y292633D01*
X506903Y212708D02*
X509085D01*
X300779Y109774D02*
X301416Y109138D01*
X305920Y90402D02*
X307192D01*
X507989Y318436D02*
X508307Y319072D01*
X306314Y237290D02*
X306587Y237563D01*
X292187Y134326D02*
X292460Y133780D01*
X530194Y160178D02*
X531285D01*
X517594Y160996D02*
Y161814D01*
X315628Y58659D02*
X316264Y58977D01*
X304965Y90084D02*
X305920Y90402D01*
X507366Y289966D02*
X507685Y289648D01*
X507048Y283094D02*
X508003Y283412D01*
X301078Y191033D02*
X301623Y190487D01*
X524576Y212435D02*
X527030D01*
X528830Y214072D02*
X529103Y214617D01*
X520048Y190035D02*
X520867Y189762D01*
X503738Y237952D02*
X504375Y237634D01*
X314114Y235108D02*
X314660Y235381D01*
X295187Y138144D02*
Y138689D01*
X306587Y313490D02*
X306860Y313763D01*
X523212Y213526D02*
X523485Y212981D01*
X312205Y161362D02*
X312478Y161635D01*
X310883Y83721D02*
X313110Y87221D01*
X311933Y262596D02*
Y263414D01*
X315751Y311308D02*
Y317035D01*
X301896Y186941D02*
X302169Y187760D01*
X517594Y161814D02*
X517867Y162360D01*
X310070Y115501D02*
X311979Y112956D01*
X312205Y134053D02*
X312478Y133780D01*
X503216Y321936D02*
X504171Y322254D01*
X303969Y186396D02*
X304514Y185851D01*
X519503Y136508D02*
X521685D01*
X296452Y108819D02*
X298361Y113274D01*
X531285Y184308D02*
X531830Y184580D01*
X309860Y136508D02*
X310133Y135689D01*
X304329Y85630D02*
X304647Y86266D01*
X305224Y213160D02*
X305496Y212341D01*
X308496Y211251D02*
X309042Y211796D01*
X306696Y287178D02*
X307242Y287451D01*
X523485Y165360D02*
X523758Y165632D01*
X529103Y138144D02*
X529376Y138689D01*
X303424Y133508D02*
X303969Y133780D01*
X501943Y305645D02*
X502580Y305009D01*
X305333Y191305D02*
X306424D01*
X505266Y164269D02*
Y164814D01*
X304242Y162726D02*
X304514Y163271D01*
X523212Y188126D02*
X523485Y187581D01*
X502783Y245462D02*
X503102Y244507D01*
X312478Y267233D02*
X313296Y267505D01*
X300151Y216432D02*
X300969Y216705D01*
X531830Y209981D02*
X532376Y210526D01*
X300779Y115501D02*
X304279D01*
X507353Y321618D02*
X507989Y320982D01*
X507495Y267492D02*
X508131Y268129D01*
X309314Y238653D02*
X309587Y238926D01*
X300805Y292905D02*
X301623Y292087D01*
X503739Y209708D02*
Y215435D01*
X300461Y110728D02*
Y111365D01*
X307192Y90402D02*
X308147Y90084D01*
X306042Y235926D02*
Y236744D01*
X293005Y133508D02*
X293551D01*
X307787Y292087D02*
X308060Y291542D01*
X529103Y160996D02*
X529648Y160450D01*
X518957Y160178D02*
X520048D01*
X313083Y59614D02*
X313719Y58977D01*
X505457Y292703D02*
X506412Y292384D01*
Y283094D02*
X507048D01*
X301623Y190487D02*
X301896Y189941D01*
X527030Y209708D02*
Y215435D01*
X530194D02*
X531285D01*
X505266Y190035D02*
X509085D01*
X504375Y237634D02*
X505329Y237316D01*
X312478Y235381D02*
X313024Y235108D01*
X297096Y137871D02*
Y138417D01*
X306314Y312945D02*
X306587Y313490D01*
X521412Y214072D02*
Y214617D01*
X311933Y159999D02*
Y160817D01*
X310883Y88493D02*
Y89130D01*
X312205Y263960D02*
X312478Y264233D01*
X313296Y317035D02*
X315751D01*
X301078Y185851D02*
X301623Y186396D01*
X523212Y163996D02*
Y164814D01*
X311025Y112956D02*
X311979D01*
X311933Y134599D02*
X312205Y134053D01*
X501625Y310927D02*
X508307D01*
X305333Y185578D02*
X306424D01*
X516339Y133508D02*
Y139235D01*
X315751Y158908D02*
Y164635D01*
X305601Y86902D02*
X307511Y87539D01*
X504821Y293657D02*
X505139Y293021D01*
X503738Y248325D02*
X504375D01*
X502086Y271311D02*
X502722Y271947D01*
X315478Y236472D02*
X315751Y237290D01*
X300151Y213433D02*
X300696Y213705D01*
X518139Y212162D02*
X518685Y212435D01*
Y187035D02*
X520321Y187581D01*
X305605Y287178D02*
X306696D01*
X523212Y164814D02*
X523485Y165360D01*
X529103Y137598D02*
X529376Y137053D01*
X304242Y134599D02*
Y139235D01*
X503216Y304691D02*
X504171Y304373D01*
X315751Y185578D02*
Y191305D01*
X505266Y164269D02*
X505539Y163723D01*
X302060Y164635D02*
X303151D01*
X523758Y189762D02*
X524576Y190035D01*
X502783Y245462D02*
Y246734D01*
X315205Y267233D02*
X315751Y266687D01*
X302060Y216705D02*
X302878Y216432D01*
X529648Y209981D02*
X530194Y209708D01*
X306587Y159726D02*
X307132Y159180D01*
X508639Y296203D02*
X508957Y295248D01*
X508131Y268129D02*
X508449Y269083D01*
X311660Y239471D02*
X311933Y240017D01*
Y315399D02*
X312205Y314854D01*
X303969Y290723D02*
X304242Y291542D01*
X499921Y209708D02*
X503739Y215435D01*
X301416Y109138D02*
X302370Y108819D01*
X308147Y90084D02*
X308783Y89448D01*
X306042Y235926D02*
X306587Y235381D01*
X293278Y135417D02*
X293823Y135144D01*
X308333Y289360D02*
Y290723D01*
X528830Y161541D02*
X529103Y160996D01*
X510885Y158269D02*
X515794D01*
X313719Y58977D02*
X314355Y58659D01*
X505139Y293021D02*
X505457Y292703D01*
X502275Y283412D02*
X504821Y285321D01*
X304110Y58659D02*
Y65341D01*
X299442Y191305D02*
X300533D01*
X521139Y163996D02*
X521412Y164541D01*
X312205Y159453D02*
X312478Y159180D01*
X507176Y184308D02*
Y190035D01*
X505329Y237316D02*
X506920D01*
X314660Y235381D02*
X315205Y235926D01*
X295187Y138689D02*
X295732Y139235D01*
X306314Y312126D02*
X306860Y311581D01*
X521139Y213526D02*
X521412Y214072D01*
X311933Y159999D02*
X312205Y159453D01*
X299974Y63750D02*
X300292Y64386D01*
X311933Y262596D02*
X312478Y262051D01*
Y314581D02*
X313296Y314308D01*
X298078Y186941D02*
X298351Y186396D01*
X310388Y112637D02*
X311025Y112956D01*
X312478Y133780D02*
X313296Y133508D01*
X501625Y315382D02*
X508307Y310927D01*
X305496Y215341D02*
X305769Y215887D01*
X307242Y185851D02*
X307787Y186396D01*
X512521Y133508D02*
X516339Y139235D01*
X313296Y158908D02*
X315751D01*
X305920Y83721D02*
X307192D01*
X502275Y292703D02*
X504821Y294612D01*
X508449Y254702D02*
Y258520D01*
X502722Y271947D02*
X503358D01*
X315205Y235926D02*
X315478Y236472D01*
X294533Y164635D02*
X296714Y161908D01*
X299878Y213160D02*
X300151Y213433D01*
X517867Y211890D02*
X518139Y212162D01*
Y186762D02*
X518685Y187035D01*
X508321Y287230D02*
X508639Y286912D01*
X501767Y262211D02*
X502086Y261574D01*
X308496Y267505D02*
X309042Y267233D01*
X313569Y185578D02*
X315751Y191305D01*
X505539Y163723D02*
X505812Y163451D01*
X301242Y159180D02*
X302060Y158908D01*
X523485Y189490D02*
X523758Y189762D01*
X502783Y232670D02*
X509465Y235216D01*
X315751Y266142D02*
Y266687D01*
X302878Y216432D02*
X303424Y215887D01*
X529103Y210526D02*
X529648Y209981D01*
X306314Y160544D02*
X306587Y159726D01*
X507685Y296839D02*
X508321Y296521D01*
X508131Y271311D02*
X508449Y270356D01*
X311933Y240017D02*
X312478Y240562D01*
X312205Y314854D02*
X312478Y314581D01*
X301623Y292087D02*
X302169Y291814D01*
X505539Y209708D02*
X509085D01*
X306860Y136508D02*
X307405Y137053D01*
X304329Y89448D02*
X304965Y90084D01*
X306042Y236744D02*
X306314Y237290D01*
X293823Y135144D02*
X294096Y134599D01*
X310133Y287178D02*
Y292905D01*
X528830Y161541D02*
Y162360D01*
X520048Y160178D02*
X520867Y160450D01*
X303325Y108819D02*
X304279Y109138D01*
X507685Y290285D02*
X508003Y289966D01*
X502275Y283412D02*
Y286912D01*
X299655Y61205D02*
Y62795D01*
X298078Y189941D02*
X298351Y190487D01*
X520867Y163723D02*
X521139Y163996D01*
X312478Y159180D02*
X313296Y158908D01*
X520867Y187853D02*
X521139Y188126D01*
X506283Y245143D02*
X506602Y244507D01*
X313024Y240835D02*
X314114D01*
X296714Y158908D02*
Y161908D01*
X297805Y189123D02*
X298078Y189941D01*
X520867Y215163D02*
X521412Y214617D01*
X299655Y62795D02*
X299974Y63750D01*
X309860Y263142D02*
X310133Y263960D01*
X313296Y314308D02*
X315751D01*
X297805Y187760D02*
X298078Y186941D01*
X310070Y112319D02*
X310388Y112637D01*
X313296Y133508D02*
X315751D01*
X501625Y315382D02*
X508307D01*
X306860Y216705D02*
X307951D01*
X306424Y185578D02*
X307242Y185851D01*
X512521Y133508D02*
Y139235D01*
X312616Y108819D02*
X313570Y109138D01*
X308783Y88811D02*
Y89448D01*
X502275Y292703D02*
Y296203D01*
X507495Y264756D02*
X508131Y264120D01*
X501767Y269083D02*
Y270356D01*
X311387Y216705D02*
X313569Y210978D01*
X292187Y139235D02*
X292733Y138962D01*
X299605Y212614D02*
X299878Y213160D01*
X532921Y211890D02*
Y213253D01*
X517867Y186490D02*
X518139Y186762D01*
X507874Y237634D02*
X508511Y237952D01*
X501767Y263484D02*
X502086Y264120D01*
X309042Y267233D02*
X309587Y266687D01*
X294543Y113274D02*
X296452Y108819D01*
X529648Y184580D02*
X530194Y184308D01*
X310133Y135144D02*
Y135689D01*
X304329Y84675D02*
Y85630D01*
X305496Y212341D02*
X305769Y211796D01*
X309042D02*
X309314Y212341D01*
X520867Y213253D02*
X521139Y213526D01*
X299655Y61205D02*
X299974Y60250D01*
X309587Y266687D02*
X309860Y266142D01*
X311933Y311308D02*
X313842Y314308D01*
X309752Y111365D02*
X310070Y112319D01*
X312205Y135962D02*
X312478Y136235D01*
X504171Y322254D02*
X505761D01*
X306314Y216432D02*
X306860Y216705D01*
X303969Y186396D02*
Y187214D01*
X518139Y133508D02*
X521685D01*
X313570Y109138D02*
X313888Y109456D01*
X312474Y90402D02*
X315338D01*
X508307Y306600D02*
Y308827D01*
X508131Y264120D02*
X508449Y263484D01*
X299605Y211796D02*
X300151Y211251D01*
X517594Y210526D02*
X518139Y209981D01*
X517594Y185126D02*
X518139Y184580D01*
X506920Y237316D02*
X507874Y237634D01*
X502086Y264120D02*
X502722Y264756D01*
X311933Y266687D02*
X312478Y267233D01*
X295460Y137598D02*
X296005Y137326D01*
X529103Y185126D02*
X529648Y184580D01*
X307951Y133508D02*
X308769D01*
X306210Y58659D02*
Y65341D01*
X305769Y211796D02*
X306314Y211251D01*
X309314Y215341D02*
X309587Y214523D01*
X307242Y287451D02*
X307787Y287996D01*
X523758Y165632D02*
X524576Y165905D01*
X529648Y138962D02*
X530466Y139235D01*
X302878Y133508D02*
X303424D01*
X501625Y306600D02*
Y308827D01*
X312478Y316763D02*
X313296Y317035D01*
X309752Y110728D02*
Y111365D01*
X311933Y137598D02*
X312205Y137053D01*
X506716Y321936D02*
X507353Y321618D01*
X305769Y215887D02*
X306314Y216432D01*
X292187Y139235D02*
X297096Y133508D01*
X528830Y188671D02*
X529103Y189217D01*
X531285Y160178D02*
X531830Y160450D01*
X313888Y109456D02*
X314206Y110092D01*
X312764Y63750D02*
X313083Y64386D01*
X501625Y306600D02*
X501943Y305645D01*
X506858Y260620D02*
X507495Y260938D01*
X300151Y211251D02*
X300969Y210978D01*
X517594Y211344D02*
X517867Y211890D01*
X518139Y184580D02*
X518957Y184308D01*
X502783Y241771D02*
X509465D01*
X502086Y261574D02*
X502722Y260938D01*
X306860Y210978D02*
X307951D01*
X307405Y267505D02*
X308496D01*
X314355Y58659D02*
X315628D01*
X528830Y185671D02*
X529103Y185126D01*
X311933Y162999D02*
X312205Y162453D01*
X301883Y65341D02*
X304110D01*
X306314Y211251D02*
X306860Y210978D01*
X311387D02*
Y216705D01*
X313024Y292633D02*
X313842Y292905D01*
X518139Y165632D02*
X518957Y165905D01*
X529376Y138689D02*
X529648Y138962D01*
X299987Y133780D02*
X300260Y134599D01*
X502580Y321618D02*
X503216Y321936D01*
X313296Y164635D02*
X315751D01*
X505812Y163451D02*
X506630Y163178D01*
X301242Y161362D02*
X301787Y161635D01*
X523212Y188944D02*
X523485Y189490D01*
X507238Y231080D02*
Y234261D01*
X313296Y267505D02*
X314387D01*
X303151Y214796D02*
X303424Y215341D01*
X528830Y211071D02*
X529103Y210526D01*
X306314Y160544D02*
Y164635D01*
X507048Y292384D02*
X508003Y292703D01*
X506540Y267492D02*
X507495D01*
X309314Y240562D02*
X309860Y240017D01*
X307405Y314035D02*
X309042Y314581D01*
X300805Y287178D02*
Y292905D01*
X518139Y215163D02*
X518957Y215435D01*
X307405Y137053D02*
X307951Y137326D01*
X310883Y89130D02*
X311201Y89766D01*
X306587Y240562D02*
X307405Y240835D01*
X292187Y134871D02*
X292733Y135417D01*
X311933Y290723D02*
X312205Y291542D01*
X528830Y162360D02*
X530194D01*
X532921D02*
Y163723D01*
X304279Y109138D02*
X304597Y109456D01*
X507366Y289966D02*
X507685Y290285D01*
X503995Y271629D02*
X504313Y271311D01*
X312764Y60250D02*
X313083Y59614D01*
X307242Y191033D02*
X307787Y190487D01*
X520321Y163451D02*
X520867Y163723D01*
X312205Y164090D02*
X312478Y164362D01*
X520867Y189762D02*
X521412Y189217D01*
X506602Y244507D02*
X506920Y244189D01*
X315478Y265596D02*
X315751Y266142D01*
X312205Y316490D02*
X312478Y316763D01*
X297805Y187760D02*
Y189123D01*
X311933Y137598D02*
Y138144D01*
X506716Y317482D02*
X507353Y317800D01*
X313296Y261778D02*
X314387D01*
X296714Y161908D02*
X298896Y164635D01*
X531830Y189762D02*
X532376Y189217D01*
X531285Y165905D02*
X531830Y165632D01*
X313296Y136508D02*
X315751D01*
X313083Y64386D02*
X313719Y65023D01*
X505761Y304373D02*
X506716Y304691D01*
X508131Y261574D02*
X508449Y262211D01*
X302060Y210978D02*
X302878Y211251D01*
X517594Y210526D02*
Y211344D01*
X520048Y184308D02*
X520867Y184580D01*
X508511Y237952D02*
X509147Y238589D01*
X501767Y262211D02*
Y263484D01*
X313024Y235108D02*
X314114D01*
X296551Y137326D02*
X297096Y137871D01*
X309587Y311581D02*
X310133Y312126D01*
X528830Y185671D02*
Y186490D01*
X312205Y162453D02*
X312478Y162181D01*
X300928Y65023D02*
X301883Y65341D01*
X309587Y213160D02*
Y214523D01*
X312478Y292087D02*
X313024Y292633D01*
X518957Y165905D02*
X520048D01*
X529376Y137053D02*
X529648Y136780D01*
X299442Y133508D02*
X299987Y133780D01*
X501625Y319072D02*
Y320345D01*
X312478Y164362D02*
X313296Y164635D01*
X505266Y160178D02*
X507176Y163178D01*
X300969Y161090D02*
X301242Y161362D01*
X524576Y190035D02*
X527030D01*
X502783Y232670D02*
X509465Y230125D01*
X309314Y137053D02*
X309860Y136508D01*
X303424Y215341D02*
Y215887D01*
X528830Y211071D02*
Y211890D01*
X309860Y159726D02*
X310133Y160544D01*
X508003Y292703D02*
X508639Y293339D01*
X507495Y271947D02*
X508131Y271311D01*
X309860Y239471D02*
Y240017D01*
X309587Y314854D02*
X309860Y315126D01*
X305060Y287451D02*
X305605Y287178D01*
X520048Y215435D02*
X520867Y215163D01*
X307951Y137326D02*
X308769D01*
X311201Y89766D02*
X311520Y90084D01*
X306587Y235381D02*
X307405Y235108D01*
X292733Y135417D02*
X293278D01*
X311933Y289360D02*
X312205Y288542D01*
X528830Y164541D02*
X529103Y165087D01*
X532648Y164541D02*
X532921Y163723D01*
X304597Y109456D02*
X304916Y110092D01*
X507685Y289648D02*
X508003Y289966D01*
X503358Y271947D02*
X503995Y271629D01*
X312764Y60250D02*
Y61205D01*
X303969Y190487D02*
X304514Y191033D01*
X518685Y162905D02*
X520321Y163451D01*
X303151Y158908D02*
X303969Y159180D01*
X521412Y188671D02*
Y189217D01*
X506920Y244189D02*
X507556Y243870D01*
X315205Y265324D02*
X315478Y265596D01*
X311933Y315944D02*
X312205Y316490D01*
X298351Y186396D02*
X298896Y185851D01*
X520321Y212981D02*
X520867Y213253D01*
X300292Y64386D02*
X300928Y65023D01*
X309860Y266142D02*
X310133Y265324D01*
X505761Y317482D02*
Y319072D01*
X315205Y262051D02*
X315751Y262596D01*
X293551Y138689D02*
X294369D01*
X532648Y188671D02*
X532921Y187853D01*
X531830Y165632D02*
X532376Y165087D01*
X313296Y139235D02*
X315751D01*
X313719Y65023D02*
X314355Y65341D01*
X506716Y304691D02*
X507353Y305009D01*
X507495Y260938D02*
X508131Y261574D01*
X302878Y211251D02*
X303424Y211796D01*
X518139Y209981D02*
X518957Y209708D01*
X520867Y184580D02*
X521412Y185126D01*
X509147Y238589D02*
X509465Y239543D01*
X502086Y268129D02*
X502722Y267492D01*
X314660Y240562D02*
X315205Y240017D01*
X296823Y138962D02*
X297096Y138417D01*
X307678Y311308D02*
X308769D01*
X528830Y186490D02*
X530194D01*
X311933Y160817D02*
X312205Y161362D01*
X300002Y83721D02*
Y90402D01*
X308496Y216432D02*
X309042Y215887D01*
X312478Y287996D02*
X313024Y287451D01*
X520867Y165632D02*
X521412Y165087D01*
X529648Y136780D02*
X530466Y136508D01*
X300260Y134599D02*
Y139235D01*
X501625Y320345D02*
X501943Y320982D01*
X313296Y161908D02*
X315751D01*
X499648Y160178D02*
X503466Y165905D01*
X300696Y160544D02*
X300969Y161090D01*
X524576Y187035D02*
X527030D01*
X503102Y247689D02*
X503738Y248325D01*
X311933Y135417D02*
X312205Y135962D01*
X302878Y214523D02*
X303151Y214796D01*
X528830Y211890D02*
X530194D01*
X309314Y159180D02*
X309860Y159726D01*
X508639Y293339D02*
X508957Y294294D01*
X508449Y269083D02*
Y270356D01*
X307405Y240835D02*
X308496D01*
X309042Y314581D02*
X309587Y314854D01*
X307242Y292633D02*
X307787Y292087D01*
X499921Y209708D02*
Y215435D01*
X308769Y137326D02*
X309314Y137053D01*
X297774Y90402D02*
X302229D01*
X307132Y237835D02*
X308769Y238381D01*
X292187Y134326D02*
Y134871D01*
X312205Y291542D02*
X312478Y292087D01*
X527030Y160178D02*
Y165905D01*
X532376Y160996D02*
X532648Y161541D01*
X307334Y110410D02*
X307652Y110092D01*
X505457Y283412D02*
X506412Y283094D01*
X310664Y58659D02*
Y65341D01*
X304514Y191033D02*
X305333Y191305D01*
X518139Y162632D02*
X518685Y162905D01*
X303969Y159180D02*
X304514Y159726D01*
X517594Y189217D02*
X518139Y189762D01*
X509147Y247689D02*
X509465Y246734D01*
X314660Y265051D02*
X315205Y265324D01*
X311933Y315399D02*
Y315944D01*
X301623Y186396D02*
X301896Y186941D01*
X520048Y209708D02*
X520867Y209981D01*
X316901Y64386D02*
X317219Y63750D01*
X310133Y263960D02*
Y265324D01*
X303969Y289360D02*
X304242Y288542D01*
X309752Y110728D02*
X310070Y109774D01*
X532921Y186490D02*
Y187853D01*
X532376Y165087D02*
X532648Y164541D01*
X315751Y133508D02*
Y139235D01*
X312474Y87221D02*
X315338D01*
X504171Y304373D02*
X505761D01*
X508449Y262211D02*
Y263484D01*
X297805Y210978D02*
Y216705D01*
X524576Y215435D02*
X527030D01*
X529103Y214617D02*
X529648Y215163D01*
X517594Y185126D02*
Y185944D01*
X509465Y239543D02*
Y241771D01*
X501767Y269083D02*
X502086Y268129D01*
X315205Y240017D02*
X315478Y239471D01*
X521685Y236378D02*
Y242105D01*
X296278Y139235D02*
X296823Y138962D01*
X308769Y311308D02*
X309587Y311581D01*
X530194Y190035D02*
X531285D01*
X311933Y162999D02*
Y163544D01*
X310883Y88493D02*
X311201Y87857D01*
X309042Y215887D02*
X309314Y215341D01*
X313024Y287451D02*
X313842Y287178D01*
X506630Y163178D02*
X509085D01*
X529103Y133508D02*
X531012Y136508D01*
X298896Y133508D02*
X299442D01*
X501625Y319072D02*
X501943Y318436D01*
X304514Y188032D02*
X305060Y188305D01*
X509085Y160178D02*
Y165905D01*
X300696Y159726D02*
Y160544D01*
X308147Y87857D02*
X308465Y88175D01*
X502783Y246734D02*
X503102Y247689D01*
X312478Y136235D02*
X313296Y136508D01*
X299605Y215887D02*
X300151Y216432D01*
X531285Y209708D02*
X531830Y209981D01*
X307132Y159180D02*
X307951Y158908D01*
X508321Y296521D02*
X508639Y296203D01*
X501767Y258520D02*
X508449D01*
X308769Y238381D02*
X309314Y238653D01*
X309860Y315126D02*
X310133Y315672D01*
X530194Y184308D02*
X531285D01*
X309314Y133780D02*
X309860Y134326D01*
X311520Y90084D02*
X312474Y90402D01*
X300424Y267505D02*
X304242Y263687D01*
X294369Y138689D02*
X295187Y138962D01*
X311933Y289360D02*
Y290723D01*
X306314Y312126D02*
Y312945D01*
X530194Y165905D02*
X531285D01*
X531830Y160450D02*
X532376Y160996D01*
X307015Y110092D02*
X307334Y109774D01*
X508003Y283412D02*
X508639Y284048D01*
X306210Y58659D02*
X310664Y65341D01*
X306424Y191305D02*
X307242Y191033D01*
X517867Y162360D02*
X518139Y162632D01*
X303424Y162181D02*
X303969Y162453D01*
X521139Y188126D02*
X521412Y188671D01*
X508511Y248325D02*
X509147Y247689D01*
X313024Y264505D02*
X314660Y265051D01*
X300533Y185578D02*
X301078Y185851D01*
X518957Y209708D02*
X520048D01*
X311933Y138144D02*
X312205Y138689D01*
X315628Y65341D02*
X316264Y65023D01*
X309587Y262596D02*
X309860Y263142D01*
X305605Y292905D02*
X306696D01*
X310070Y109774D02*
X310706Y109138D01*
X312205Y138689D02*
X312478Y138962D01*
X317219Y60250D02*
X317537Y61205D01*
X315338Y83721D02*
Y90402D01*
X507353Y305009D02*
X507989Y305645D01*
X506858Y265074D02*
X507495Y264756D01*
X298351Y190487D02*
X298896Y191033D01*
X523758Y215163D02*
X524576Y215435D01*
X529648Y215163D02*
X530194Y215435D01*
X517594Y185944D02*
X517867Y186490D01*
X502783Y239543D02*
Y241771D01*
X315478Y239471D02*
X315751Y238653D01*
X295187Y138962D02*
X295732Y139235D01*
X302605Y311308D02*
Y317035D01*
X532376Y185126D02*
X532648Y185671D01*
X311933Y163544D02*
X312205Y164090D01*
X311201Y87857D02*
X311520Y87539D01*
X307951Y210978D02*
X308496Y211251D01*
X313842Y287178D02*
X315751D01*
X520048Y165905D02*
X520867Y165632D01*
X530466Y136508D02*
X532921D01*
X299169Y137326D02*
X301078D01*
X501943Y318436D02*
X502580Y317800D01*
X304514Y185851D02*
X305333Y185578D01*
X499648Y165905D02*
X503466Y160178D01*
X300696Y163817D02*
X301242Y164362D01*
X307192Y83721D02*
X308147Y84039D01*
X504375Y248325D02*
X505011Y248007D01*
X311933Y134599D02*
Y135417D01*
X302333Y214251D02*
X302878Y214523D01*
X530194Y209708D02*
X531285D01*
X308496Y158908D02*
X309314Y159180D01*
X508957Y294294D02*
Y295248D01*
X502722Y260938D02*
X503358Y260620D01*
X307405Y235108D02*
X308496D01*
X308769Y317035D02*
X309587Y316763D01*
X529103Y189217D02*
X529648Y189762D01*
X307405Y133780D02*
X307951Y133508D01*
X300928Y58977D02*
X301883Y58659D01*
X300424Y261778D02*
X302878Y265051D01*
X292733Y138962D02*
X293551Y138689D01*
X312205Y288542D02*
X312478Y287996D01*
X306314Y316217D02*
X306860Y316763D01*
X524576Y165905D02*
X527030D01*
X532648Y161541D02*
X532921Y162360D01*
X307334Y109774D02*
X307652Y110092D01*
X505139Y283730D02*
X505457Y283412D01*
X300292Y59614D02*
X300928Y58977D01*
X307787Y189941D02*
Y190487D01*
X520867Y160450D02*
X521412Y160996D01*
X302060Y158908D02*
X303151D01*
X518957Y190035D02*
X520048D01*
X508511Y243870D02*
X509147Y244507D01*
X312478Y264233D02*
X313024Y264505D01*
X298896Y185851D02*
X299442Y185578D01*
X520867Y209981D02*
X521412Y210526D01*
X312478Y138962D02*
X313296Y139235D01*
X317219Y63750D02*
X317537Y62795D01*
X504313Y271311D02*
X504631Y270674D01*
X308496Y261778D02*
X309042Y262051D01*
X306696Y292905D02*
X307242Y292633D01*
X532648Y185671D02*
X532921Y186490D01*
X310706Y109138D02*
X311661Y108819D01*
X505761Y317482D02*
X506716D01*
X312478Y262051D02*
X313296Y261778D01*
X295187Y138144D02*
X295460Y137598D01*
X502580Y317800D02*
X503216Y317482D01*
X304242Y187760D02*
X304514Y188032D01*
X521685Y133508D02*
Y139235D01*
X300696Y159726D02*
X301242Y159180D01*
X308147Y84039D02*
X308783Y84675D01*
X505011Y248007D02*
X505329Y247689D01*
X313569Y210978D02*
X315751Y216705D01*
X300969D02*
X302060D01*
X532376Y214617D02*
X532648Y214072D01*
X307951Y158908D02*
X308496D01*
X506412Y292384D02*
X507048D01*
X505904Y265393D02*
X506858Y265074D01*
X311933Y235926D02*
X312478Y235381D01*
X309587Y316763D02*
X310133Y316217D01*
X529648Y189762D02*
X530194Y190035D01*
X306860Y134326D02*
X307405Y133780D01*
X304965Y86584D02*
X305601Y86902D01*
X304242Y261778D02*
Y267505D01*
X308060Y291542D02*
X308333Y290723D01*
X311387Y191305D02*
X313569Y185578D01*
X306860Y316763D02*
X307678Y317035D01*
X523485Y163451D02*
X523758Y163178D01*
X523485Y133508D02*
X527303Y139235D01*
X307015Y110092D02*
X307334Y110410D01*
X504821Y284366D02*
Y285321D01*
X499648Y190035D02*
X503466Y184308D01*
X306696Y188850D02*
X307242Y189123D01*
X521412Y164541D02*
Y165087D01*
X303151Y164635D02*
X303969Y164362D01*
X527030Y184308D02*
Y190035D01*
X509147Y244507D02*
X509465Y245462D01*
X306314Y266687D02*
X306860Y267233D01*
X299442Y185578D02*
X300533D01*
X518957Y215435D02*
X520048D01*
X301098Y112637D02*
X301734Y112956D01*
X316264Y65023D02*
X316901Y64386D01*
X504631Y270674D02*
X505267Y268765D01*
X309042Y262051D02*
X309587Y262596D01*
X303969Y289360D02*
Y290723D01*
X510885Y207799D02*
X515794D01*
X311661Y108819D02*
X312616D01*
X505761Y322254D02*
X506716Y321936D01*
X314387Y261778D02*
X315205Y262051D01*
X294096Y134053D02*
Y134599D01*
X529648Y165632D02*
X530194Y165905D01*
X510885Y182399D02*
X515794D01*
D49*
X400410Y230375D02*
Y238500D01*
Y207500D02*
Y215625D01*
Y207500D02*
X411685D01*
X400410Y238500D02*
X411685D01*
X418010Y219500D02*
Y226500D01*
X400410Y114375D02*
Y122500D01*
Y91500D02*
Y99625D01*
Y91500D02*
X411685D01*
X400410Y122500D02*
X411685D01*
X418010Y103500D02*
Y110500D01*
X400410Y171375D02*
Y179500D01*
Y148500D02*
Y156625D01*
Y148500D02*
X411685D01*
X400410Y179500D02*
X411685D01*
X418010Y160500D02*
Y167500D01*
D50*
X198669Y404661D02*
X207000D01*
Y392165D01*
X198669D01*
X207000Y398413D02*
X202835D01*
X194504Y404661D02*
Y392165D01*
X188256D01*
X186173Y394248D01*
Y396331D01*
Y398413D01*
X188256Y400496D01*
X194504D01*
X182008D02*
Y394248D01*
X179925Y392165D01*
X173678D01*
Y390083D01*
X175760Y388000D01*
X177843D01*
X173678Y392165D02*
Y400496D01*
X167430Y402579D02*
Y400496D01*
X169512D01*
X165347D01*
X167430D01*
Y394248D01*
X165347Y392165D01*
X157016Y400496D02*
X152851D01*
X150768Y398413D01*
Y392165D01*
X157016D01*
X159099Y394248D01*
X157016Y396331D01*
X150768D01*
X146603Y392165D02*
X140355D01*
X138272Y394248D01*
X140355Y396331D01*
X144520D01*
X146603Y398413D01*
X144520Y400496D01*
X138272D01*
X132024Y402579D02*
Y400496D01*
X134107D01*
X129942D01*
X132024D01*
Y394248D01*
X129942Y392165D01*
X123694D02*
X119528D01*
X121611D01*
Y400496D01*
X123694D01*
X104950D02*
X111198D01*
X113280Y398413D01*
Y394248D01*
X111198Y392165D01*
X104950D01*
M02*
