G04*
G04 #@! TF.GenerationSoftware,Altium Limited,Altium Designer,25.5.2 (35)*
G04*
G04 Layer_Color=16711935*
%FSLAX44Y44*%
%MOMM*%
G71*
G04*
G04 #@! TF.SameCoordinates,A7D09D84-BF10-4A22-89B3-4961FFB17041*
G04*
G04*
G04 #@! TF.FilePolarity,Negative*
G04*
G01*
G75*
%ADD24R,3.5000X1.6000*%
%ADD33C,2.0000*%
%ADD34C,0.8000*%
%ADD45R,1.8998X1.7002*%
G04:AMPARAMS|DCode=46|XSize=0.73mm|YSize=1.25mm|CornerRadius=0.113mm|HoleSize=0mm|Usage=FLASHONLY|Rotation=270.000|XOffset=0mm|YOffset=0mm|HoleType=Round|Shape=RoundedRectangle|*
%AMROUNDEDRECTD46*
21,1,0.7300,1.0240,0,0,270.0*
21,1,0.5040,1.2500,0,0,270.0*
1,1,0.2260,-0.5120,-0.2520*
1,1,0.2260,-0.5120,0.2520*
1,1,0.2260,0.5120,0.2520*
1,1,0.2260,0.5120,-0.2520*
%
%ADD46ROUNDEDRECTD46*%
%ADD47R,1.7002X1.8998*%
%ADD48C,2.1000*%
D24*
X600Y118124D02*
D03*
Y62724D02*
D03*
D33*
X336280Y238760D02*
D03*
X488680Y137160D02*
D03*
X336280Y264160D02*
D03*
Y162560D02*
D03*
X311000Y400000D02*
D03*
X336280Y314960D02*
D03*
Y187960D02*
D03*
Y60960D02*
D03*
X488647Y10160D02*
D03*
X521000Y314000D02*
D03*
X488680Y86360D02*
D03*
Y111760D02*
D03*
X287000Y400000D02*
D03*
X336280Y289560D02*
D03*
Y213360D02*
D03*
Y35560D02*
D03*
Y10160D02*
D03*
Y137160D02*
D03*
X488680Y264160D02*
D03*
Y238760D02*
D03*
Y213360D02*
D03*
Y35560D02*
D03*
X336280Y86360D02*
D03*
X488680Y187960D02*
D03*
Y60960D02*
D03*
X336280Y111760D02*
D03*
X488680Y162560D02*
D03*
X521016Y290378D02*
D03*
Y264724D02*
D03*
Y239070D02*
D03*
X488680Y314960D02*
D03*
Y289560D02*
D03*
D34*
X280000Y90000D02*
D03*
X225000Y300000D02*
D03*
Y50000D02*
D03*
X175000D02*
D03*
X125000D02*
D03*
X75000Y300000D02*
D03*
X125000D02*
D03*
X175000D02*
D03*
X75000Y200000D02*
D03*
X125000D02*
D03*
X175000D02*
D03*
X225000D02*
D03*
X125000Y250000D02*
D03*
X279400Y243840D02*
D03*
X15985Y318874D02*
D03*
X16256Y268478D02*
D03*
X175000Y150000D02*
D03*
Y350000D02*
D03*
X125000D02*
D03*
X75000D02*
D03*
X175000Y250000D02*
D03*
X75000D02*
D03*
X30000Y40000D02*
D03*
X10000Y140000D02*
D03*
X30000D02*
D03*
X90000Y100000D02*
D03*
Y80000D02*
D03*
X70000Y50000D02*
D03*
Y70000D02*
D03*
Y90000D02*
D03*
Y130000D02*
D03*
Y110000D02*
D03*
X50000Y140000D02*
D03*
Y120000D02*
D03*
Y100000D02*
D03*
Y80000D02*
D03*
Y60000D02*
D03*
Y40000D02*
D03*
X317000Y226000D02*
D03*
X435210Y146000D02*
D03*
Y88000D02*
D03*
X11000Y41000D02*
D03*
X435210Y205000D02*
D03*
X125000Y100000D02*
D03*
X225000Y350000D02*
D03*
Y250000D02*
D03*
X175000Y100000D02*
D03*
X225000D02*
D03*
X125000Y150000D02*
D03*
X225000D02*
D03*
X16002Y344170D02*
D03*
X302006Y196596D02*
D03*
X15494Y242316D02*
D03*
X421640Y327660D02*
D03*
X437417Y234000D02*
D03*
X437210Y117000D02*
D03*
X436210Y174000D02*
D03*
D45*
X452971Y89545D02*
D03*
X453060Y146152D02*
D03*
X453210Y205301D02*
D03*
X453060Y174150D02*
D03*
X452971Y117543D02*
D03*
X453210Y233300D02*
D03*
D46*
X421410Y213500D02*
D03*
Y154500D02*
D03*
Y97500D02*
D03*
X397010Y223000D02*
D03*
X421410Y232500D02*
D03*
X397010Y107000D02*
D03*
X421410Y116500D02*
D03*
X397010Y164000D02*
D03*
X421410Y173500D02*
D03*
D47*
X453448Y340360D02*
D03*
X425450D02*
D03*
X425392Y313690D02*
D03*
X453390D02*
D03*
D48*
X368300Y50800D02*
D03*
X373210Y164000D02*
D03*
X373210Y223000D02*
D03*
X398000Y81000D02*
D03*
M02*
