G04*
G04 #@! TF.GenerationSoftware,Altium Limited,Altium Designer,25.5.2 (35)*
G04*
G04 Layer_Physical_Order=2*
G04 Layer_Color=14461039*
%FSLAX44Y44*%
%MOMM*%
G71*
G04*
G04 #@! TF.SameCoordinates,A89DEE48-1FC4-4ACA-BA4E-A691071BA7A7*
G04*
G04*
G04 #@! TF.FilePolarity,Positive*
G04*
G01*
G75*
%ADD14C,0.2540*%
%ADD24R,3.5000X1.6000*%
%ADD38C,0.5000*%
%ADD39C,1.9000*%
%ADD40C,0.7000*%
%ADD41R,1.7998X1.6002*%
G04:AMPARAMS|DCode=42|XSize=0.63mm|YSize=1.15mm|CornerRadius=0.063mm|HoleSize=0mm|Usage=FLASHONLY|Rotation=270.000|XOffset=0mm|YOffset=0mm|HoleType=Round|Shape=RoundedRectangle|*
%AMROUNDEDRECTD42*
21,1,0.6300,1.0240,0,0,270.0*
21,1,0.5040,1.1500,0,0,270.0*
1,1,0.1260,-0.5120,-0.2520*
1,1,0.1260,-0.5120,0.2520*
1,1,0.1260,0.5120,0.2520*
1,1,0.1260,0.5120,-0.2520*
%
%ADD42ROUNDEDRECTD42*%
%ADD43R,1.6002X1.7998*%
%ADD44C,2.0000*%
G36*
X513733Y415942D02*
X522357Y407317D01*
X521548Y406331D01*
X521436Y406405D01*
X521158Y406521D01*
X520907Y406688D01*
X519087Y407442D01*
X518792Y407500D01*
X518514Y407616D01*
X516582Y408000D01*
X516280D01*
X515985Y408059D01*
X514015D01*
X513720Y408000D01*
X513418D01*
X511486Y407616D01*
X511208Y407500D01*
X510913Y407442D01*
X509093Y406688D01*
X508842Y406520D01*
X508564Y406405D01*
X506926Y405311D01*
X506713Y405098D01*
X506463Y404930D01*
X505070Y403537D01*
X504902Y403287D01*
X504689Y403074D01*
X503595Y401436D01*
X503479Y401158D01*
X503312Y400907D01*
X502558Y399087D01*
X502500Y398792D01*
X502384Y398514D01*
X502000Y396582D01*
Y396280D01*
X501941Y395985D01*
Y394015D01*
X502000Y393720D01*
Y393418D01*
X502384Y391486D01*
X502500Y391208D01*
X502558Y390913D01*
X503312Y389093D01*
X503479Y388842D01*
X503595Y388564D01*
X504689Y386926D01*
X504902Y386713D01*
X505070Y386463D01*
X506463Y385070D01*
X506713Y384902D01*
X506926Y384689D01*
X508564Y383595D01*
X508842Y383479D01*
X509093Y383312D01*
X510913Y382558D01*
X511208Y382500D01*
X511486Y382384D01*
X513418Y382000D01*
X513720D01*
X514015Y381941D01*
X515985D01*
X516280Y382000D01*
X516582D01*
X518514Y382384D01*
X518792Y382500D01*
X519087Y382558D01*
X520907Y383312D01*
X521158Y383479D01*
X521436Y383595D01*
X523074Y384689D01*
X523287Y384902D01*
X523537Y385070D01*
X524930Y386463D01*
X525098Y386713D01*
X525311Y386926D01*
X526405Y388564D01*
X526521Y388842D01*
X526688Y389093D01*
X527442Y390913D01*
X527500Y391208D01*
X527616Y391486D01*
X528000Y393418D01*
Y393720D01*
X528059Y394015D01*
Y395985D01*
X528000Y396280D01*
Y396582D01*
X527616Y398514D01*
X527500Y398792D01*
X527442Y399087D01*
X526688Y400907D01*
X526521Y401158D01*
X526405Y401436D01*
X526330Y401548D01*
X527317Y402357D01*
X535151Y394523D01*
Y25127D01*
X528024Y17999D01*
X526947Y18719D01*
X527442Y19913D01*
X527500Y20208D01*
X527616Y20486D01*
X528000Y22418D01*
Y22720D01*
X528059Y23015D01*
Y24985D01*
X528000Y25280D01*
Y25582D01*
X527616Y27514D01*
X527500Y27792D01*
X527442Y28087D01*
X526688Y29907D01*
X526521Y30158D01*
X526405Y30436D01*
X525311Y32074D01*
X525098Y32287D01*
X524930Y32538D01*
X523537Y33930D01*
X523287Y34098D01*
X523074Y34311D01*
X521436Y35405D01*
X521158Y35521D01*
X520907Y35688D01*
X519087Y36442D01*
X518792Y36500D01*
X518514Y36616D01*
X516582Y37000D01*
X516280D01*
X515985Y37059D01*
X514015D01*
X513720Y37000D01*
X513418D01*
X511486Y36616D01*
X511208Y36500D01*
X510913Y36442D01*
X509093Y35688D01*
X508842Y35521D01*
X508564Y35405D01*
X506926Y34311D01*
X506713Y34098D01*
X506463Y33930D01*
X505070Y32538D01*
X504902Y32287D01*
X504689Y32074D01*
X503595Y30436D01*
X503479Y30158D01*
X503312Y29907D01*
X502558Y28087D01*
X502500Y27792D01*
X502384Y27514D01*
X502000Y25582D01*
Y25280D01*
X501941Y24985D01*
Y23015D01*
X502000Y22720D01*
Y22418D01*
X502384Y20486D01*
X502500Y20208D01*
X502558Y19913D01*
X503312Y18093D01*
X503479Y17842D01*
X503595Y17564D01*
X504689Y15926D01*
X504902Y15713D01*
X505070Y15462D01*
X506463Y14070D01*
X506713Y13902D01*
X506926Y13689D01*
X508564Y12595D01*
X508842Y12479D01*
X509093Y12312D01*
X510913Y11558D01*
X511208Y11500D01*
X511486Y11384D01*
X513418Y11000D01*
X513720D01*
X514015Y10941D01*
X515985D01*
X516280Y11000D01*
X516582D01*
X518514Y11384D01*
X518792Y11500D01*
X519087Y11558D01*
X520281Y12053D01*
X521001Y10976D01*
X513083Y3059D01*
X499720D01*
X499085Y4159D01*
X499866Y5513D01*
X500687Y8575D01*
Y8890D01*
X476607D01*
Y8575D01*
X477427Y5513D01*
X478209Y4159D01*
X477574Y3059D01*
X475977D01*
X464173Y14863D01*
X463181Y15526D01*
X462010Y15759D01*
X462010Y15759D01*
X360410D01*
X360410Y15759D01*
X359240Y15526D01*
X358247Y14863D01*
X358247Y14863D01*
X348727Y5343D01*
X347589Y6000D01*
X348280Y8580D01*
Y11740D01*
X347462Y14792D01*
X345882Y17528D01*
X343648Y19762D01*
X340912Y21342D01*
X337860Y22160D01*
X334700D01*
X331648Y21342D01*
X328912Y19762D01*
X326678Y17528D01*
X325098Y14792D01*
X324280Y11740D01*
Y8580D01*
X325098Y5528D01*
X325889Y4159D01*
X325254Y3059D01*
X7267D01*
X-1357Y11683D01*
X-548Y12669D01*
X-436Y12595D01*
X-158Y12479D01*
X93Y12312D01*
X1913Y11558D01*
X2208Y11500D01*
X2486Y11384D01*
X4418Y11000D01*
X4720D01*
X5015Y10941D01*
X6985D01*
X7280Y11000D01*
X7582D01*
X9514Y11384D01*
X9792Y11500D01*
X10087Y11558D01*
X11907Y12312D01*
X12158Y12479D01*
X12436Y12595D01*
X14074Y13689D01*
X14287Y13902D01*
X14538Y14070D01*
X15930Y15462D01*
X16098Y15713D01*
X16311Y15926D01*
X17405Y17564D01*
X17521Y17842D01*
X17688Y18093D01*
X18442Y19913D01*
X18500Y20208D01*
X18616Y20486D01*
X19000Y22418D01*
Y22720D01*
X19059Y23015D01*
Y24985D01*
X19000Y25280D01*
Y25582D01*
X18616Y27514D01*
X18500Y27792D01*
X18442Y28087D01*
X17688Y29907D01*
X17521Y30158D01*
X17405Y30436D01*
X16311Y32074D01*
X16098Y32287D01*
X15930Y32538D01*
X14538Y33930D01*
X14287Y34098D01*
X14074Y34311D01*
X12436Y35405D01*
X12158Y35521D01*
X11907Y35688D01*
X10087Y36442D01*
X9792Y36500D01*
X9514Y36616D01*
X7582Y37000D01*
X7280D01*
X6985Y37059D01*
X5015D01*
X4720Y37000D01*
X4418D01*
X2486Y36616D01*
X2208Y36500D01*
X1912Y36442D01*
X93Y35688D01*
X-158Y35521D01*
X-436Y35405D01*
X-2074Y34311D01*
X-2287Y34098D01*
X-2537Y33930D01*
X-3930Y32538D01*
X-4098Y32287D01*
X-4311Y32074D01*
X-5405Y30436D01*
X-5520Y30158D01*
X-5688Y29907D01*
X-6442Y28087D01*
X-6500Y27792D01*
X-6616Y27514D01*
X-7000Y25582D01*
Y25280D01*
X-7059Y24985D01*
Y23015D01*
X-7000Y22720D01*
Y22418D01*
X-6616Y20486D01*
X-6500Y20208D01*
X-6442Y19913D01*
X-5688Y18093D01*
X-5520Y17842D01*
X-5405Y17564D01*
X-5331Y17452D01*
X-6317Y16643D01*
X-14721Y25047D01*
Y52184D01*
X-670D01*
Y62724D01*
Y73264D01*
X-14721D01*
Y107584D01*
X-670D01*
Y118124D01*
Y128664D01*
X-14721D01*
Y145098D01*
X2236Y163267D01*
X2523Y163730D01*
X2826Y164184D01*
X2836Y164236D01*
X2864Y164282D01*
X2952Y164820D01*
X3059Y165354D01*
Y262327D01*
X3181Y262421D01*
X4329Y262793D01*
X17957Y249165D01*
X17237Y248088D01*
X16688Y248316D01*
X14301D01*
X12095Y247403D01*
X10407Y245715D01*
X9494Y243510D01*
Y241122D01*
X10407Y238917D01*
X12095Y237229D01*
X14301Y236316D01*
X16688D01*
X18893Y237229D01*
X20135Y238472D01*
X21522D01*
X43002Y216992D01*
X44249Y216159D01*
X45720Y215866D01*
X45720Y215866D01*
X282888D01*
X297178Y201576D01*
Y200253D01*
X296919Y199995D01*
X296006Y197789D01*
Y195403D01*
X296919Y193197D01*
X298607Y191509D01*
X300812Y190596D01*
X303200D01*
X305405Y191509D01*
X307093Y193197D01*
X308006Y195403D01*
Y197789D01*
X307430Y199180D01*
X308507Y199899D01*
X317974Y190432D01*
Y175260D01*
X317974Y175260D01*
X318267Y173789D01*
X319100Y172542D01*
X324961Y166681D01*
X324280Y164140D01*
Y160980D01*
X325098Y157928D01*
X326678Y155192D01*
X328912Y152958D01*
X331648Y151378D01*
X334700Y150560D01*
X337860D01*
X340912Y151378D01*
X343648Y152958D01*
X345882Y155192D01*
X347462Y157928D01*
X348280Y160980D01*
Y164140D01*
X347462Y167192D01*
X345882Y169928D01*
X343648Y172162D01*
X340912Y173742D01*
X337860Y174560D01*
X334700D01*
X331648Y173742D01*
X329825Y172689D01*
X325662Y176852D01*
Y179978D01*
X326932Y180338D01*
X328912Y178358D01*
X331648Y176778D01*
X334700Y175960D01*
X337860D01*
X340912Y176778D01*
X343648Y178358D01*
X345882Y180592D01*
X347462Y183328D01*
X348280Y186380D01*
Y189540D01*
X347462Y192592D01*
X345882Y195328D01*
X343648Y197562D01*
X340912Y199142D01*
X337860Y199960D01*
X334700D01*
X331648Y199142D01*
X330942Y198734D01*
X297168Y232508D01*
X295921Y233341D01*
X294450Y233634D01*
X294450Y233634D01*
X293577D01*
X293091Y234807D01*
X323010Y264726D01*
X324280Y264200D01*
Y262580D01*
X325098Y259528D01*
X326678Y256792D01*
X328912Y254558D01*
X331648Y252978D01*
X334700Y252160D01*
X337860D01*
X340912Y252978D01*
X343648Y254558D01*
X345882Y256792D01*
X347462Y259528D01*
X348280Y262580D01*
Y265740D01*
X347462Y268792D01*
X345882Y271528D01*
X343648Y273762D01*
X340912Y275342D01*
X337860Y276160D01*
X334700D01*
X331648Y275342D01*
X329940Y274356D01*
X328670Y275089D01*
Y276514D01*
X330942Y278786D01*
X331648Y278378D01*
X334700Y277560D01*
X337860D01*
X340912Y278378D01*
X343648Y279958D01*
X345882Y282192D01*
X347462Y284928D01*
X348280Y287980D01*
Y291140D01*
X347462Y294192D01*
X345882Y296928D01*
X343648Y299162D01*
X340912Y300742D01*
X337860Y301560D01*
X334700D01*
X331648Y300742D01*
X328912Y299162D01*
X326678Y296928D01*
X325098Y294192D01*
X324900Y293453D01*
X323630Y293620D01*
Y310900D01*
X324900Y311067D01*
X325098Y310328D01*
X326678Y307592D01*
X328912Y305358D01*
X331648Y303778D01*
X334700Y302960D01*
X337860D01*
X340912Y303778D01*
X343648Y305358D01*
X345882Y307592D01*
X347462Y310328D01*
X348280Y313380D01*
Y316540D01*
X347462Y319592D01*
X345882Y322328D01*
X343648Y324562D01*
X341355Y325886D01*
X341696Y327156D01*
X378408D01*
X460590Y244974D01*
X460104Y243801D01*
X441711D01*
Y239851D01*
X440441Y239242D01*
X438610Y240000D01*
X436223D01*
X434018Y239086D01*
X432330Y237399D01*
X432225Y237144D01*
X428875D01*
X428787Y237277D01*
X427751Y237968D01*
X426530Y238211D01*
X416290D01*
X415069Y237968D01*
X414033Y237277D01*
X413342Y236241D01*
X413099Y235020D01*
Y229980D01*
X413342Y228759D01*
X414033Y227723D01*
X415069Y227032D01*
X416290Y226789D01*
X426530D01*
X427751Y227032D01*
X428787Y227723D01*
X429478Y228759D01*
X429617Y229456D01*
X433475D01*
X434018Y228913D01*
X436223Y228000D01*
X438610D01*
X440441Y228758D01*
X441454Y228273D01*
X441711Y228014D01*
Y222799D01*
X463156D01*
Y215842D01*
X454480D01*
Y205301D01*
Y194760D01*
X463156D01*
Y184651D01*
X441561D01*
Y178931D01*
X440291Y178405D01*
X439609Y179087D01*
X437403Y180000D01*
X435017D01*
X432811Y179087D01*
X431319Y177594D01*
X429243D01*
X428787Y178277D01*
X427751Y178968D01*
X426530Y179211D01*
X416290D01*
X415069Y178968D01*
X414033Y178277D01*
X413342Y177241D01*
X413099Y176020D01*
Y170980D01*
X413342Y169759D01*
X414033Y168723D01*
X415069Y168032D01*
X416290Y167789D01*
X426530D01*
X427751Y168032D01*
X428787Y168723D01*
X429478Y169759D01*
X429508Y169906D01*
X431819D01*
X432811Y168913D01*
X435017Y168000D01*
X437403D01*
X439609Y168913D01*
X440291Y169596D01*
X441561Y169069D01*
Y163649D01*
X463156D01*
Y156692D01*
X454330D01*
Y147422D01*
X464599D01*
Y149515D01*
X465773Y150001D01*
X476755Y139019D01*
X476680Y138740D01*
Y135580D01*
X477498Y132528D01*
X479078Y129792D01*
X481312Y127558D01*
X484048Y125978D01*
X487100Y125160D01*
X490260D01*
X493312Y125978D01*
X496048Y127558D01*
X498282Y129792D01*
X499862Y132528D01*
X500680Y135580D01*
Y138740D01*
X499862Y141792D01*
X498282Y144528D01*
X496048Y146762D01*
X493312Y148342D01*
X490260Y149160D01*
X487100D01*
X484048Y148342D01*
X481312Y146762D01*
X480598Y146048D01*
X470844Y155802D01*
Y244000D01*
X470844Y244000D01*
X470551Y245471D01*
X469718Y246718D01*
X415515Y300921D01*
X416041Y302191D01*
X435892D01*
Y325189D01*
X428254D01*
X427548Y326245D01*
X427640Y326466D01*
Y328853D01*
X427645Y328861D01*
X435951D01*
Y351859D01*
X414949D01*
Y328861D01*
X415635D01*
X415640Y328853D01*
Y326466D01*
X415732Y326245D01*
X415026Y325189D01*
X414891D01*
Y303342D01*
X413620Y302815D01*
X382718Y333718D01*
X381471Y334551D01*
X380000Y334844D01*
X380000Y334844D01*
X332000D01*
X330529Y334551D01*
X329282Y333718D01*
X329282Y333718D01*
X317068Y321504D01*
X316235Y320257D01*
X315942Y318786D01*
X315942Y318786D01*
Y275658D01*
X288145Y247861D01*
X283864D01*
X282799Y248927D01*
X280593Y249840D01*
X278207D01*
X276001Y248927D01*
X274313Y247239D01*
X273400Y245033D01*
Y242647D01*
X274313Y240441D01*
X274811Y239944D01*
X274285Y238674D01*
X126934D01*
X22002Y343606D01*
Y345364D01*
X21089Y347569D01*
X19401Y349257D01*
X17196Y350170D01*
X14808D01*
X12603Y349257D01*
X10915Y347569D01*
X10002Y345364D01*
Y342976D01*
X10915Y340771D01*
X12603Y339083D01*
X14808Y338170D01*
X16566D01*
X119929Y234807D01*
X119443Y233634D01*
X52472D01*
X21185Y264921D01*
X21343Y265079D01*
X22256Y267285D01*
Y269671D01*
X21343Y271877D01*
X19655Y273565D01*
X17450Y274478D01*
X15063D01*
X12857Y273565D01*
X11870Y272577D01*
X10600Y273103D01*
Y313012D01*
X11471Y313883D01*
X12492D01*
X12586Y313788D01*
X14792Y312875D01*
X17178D01*
X19384Y313788D01*
X21072Y315476D01*
X21985Y317681D01*
Y320068D01*
X21072Y322273D01*
X19384Y323961D01*
X17178Y324874D01*
X14792D01*
X12586Y323961D01*
X10898Y322273D01*
X10607Y321570D01*
X9879D01*
X9879Y321570D01*
X8407Y321278D01*
X7160Y320444D01*
X4329Y317613D01*
X3181Y317984D01*
X3059Y318079D01*
Y347709D01*
X2826Y348880D01*
X2163Y349872D01*
X2163Y349872D01*
X-14721Y366755D01*
Y391164D01*
X-8045Y397840D01*
X-6874Y397214D01*
X-7000Y396582D01*
Y396280D01*
X-7059Y395985D01*
Y394015D01*
X-7000Y393720D01*
Y393418D01*
X-6616Y391486D01*
X-6500Y391208D01*
X-6442Y390913D01*
X-5688Y389093D01*
X-5520Y388842D01*
X-5405Y388564D01*
X-4311Y386926D01*
X-4098Y386713D01*
X-3930Y386463D01*
X-2537Y385070D01*
X-2287Y384902D01*
X-2074Y384689D01*
X-436Y383595D01*
X-158Y383479D01*
X93Y383312D01*
X1913Y382558D01*
X2208Y382500D01*
X2486Y382384D01*
X4418Y382000D01*
X4720D01*
X5015Y381941D01*
X6985D01*
X7280Y382000D01*
X7582D01*
X9514Y382384D01*
X9792Y382500D01*
X10087Y382558D01*
X11907Y383312D01*
X12158Y383479D01*
X12436Y383595D01*
X14074Y384689D01*
X14287Y384902D01*
X14538Y385070D01*
X15930Y386463D01*
X16098Y386713D01*
X16311Y386926D01*
X17405Y388564D01*
X17521Y388842D01*
X17688Y389093D01*
X18442Y390913D01*
X18500Y391208D01*
X18616Y391486D01*
X19000Y393418D01*
Y393720D01*
X19059Y394015D01*
Y395985D01*
X19000Y396280D01*
Y396582D01*
X18616Y398514D01*
X18500Y398792D01*
X18442Y399087D01*
X17688Y400907D01*
X17521Y401158D01*
X17405Y401436D01*
X16311Y403074D01*
X16098Y403287D01*
X15930Y403537D01*
X14538Y404930D01*
X14287Y405098D01*
X14074Y405311D01*
X12436Y406405D01*
X12158Y406521D01*
X11907Y406688D01*
X10087Y407442D01*
X9792Y407500D01*
X9514Y407616D01*
X7582Y408000D01*
X7280D01*
X6985Y408059D01*
X5015D01*
X4720Y408000D01*
X4418D01*
X3786Y407874D01*
X3160Y409045D01*
X10156Y416041D01*
X513733Y415942D01*
D02*
G37*
%LPC*%
G36*
X285730Y412040D02*
X285415D01*
X282353Y411219D01*
X279607Y409634D01*
X277366Y407393D01*
X275781Y404647D01*
X274960Y401585D01*
Y401270D01*
X285730D01*
Y412040D01*
D02*
G37*
G36*
X288585D02*
X288270D01*
Y400000D01*
Y387960D01*
X288585D01*
X291647Y388781D01*
X294393Y390366D01*
X296634Y392607D01*
X298220Y395353D01*
X298386Y395973D01*
X299656D01*
X299818Y395368D01*
X301398Y392632D01*
X303632Y390398D01*
X306368Y388818D01*
X309420Y388000D01*
X312580D01*
X315632Y388818D01*
X318368Y390398D01*
X320602Y392632D01*
X322182Y395368D01*
X323000Y398420D01*
Y401580D01*
X322182Y404632D01*
X320602Y407368D01*
X318368Y409602D01*
X315632Y411182D01*
X312580Y412000D01*
X309420D01*
X306368Y411182D01*
X303632Y409602D01*
X301398Y407368D01*
X299818Y404632D01*
X299656Y404027D01*
X298386D01*
X298220Y404647D01*
X296634Y407393D01*
X294393Y409634D01*
X291647Y411219D01*
X288585Y412040D01*
D02*
G37*
G36*
X285730Y398730D02*
X274960D01*
Y398415D01*
X275781Y395353D01*
X277366Y392607D01*
X279607Y390366D01*
X282353Y388781D01*
X285415Y387960D01*
X285730D01*
Y398730D01*
D02*
G37*
G36*
X522585Y326040D02*
X522270D01*
Y315270D01*
X533040D01*
Y315585D01*
X532220Y318647D01*
X530634Y321393D01*
X528393Y323634D01*
X525647Y325219D01*
X522585Y326040D01*
D02*
G37*
G36*
X519730D02*
X519415D01*
X516353Y325219D01*
X513607Y323634D01*
X511366Y321393D01*
X509781Y318647D01*
X508960Y315585D01*
Y315270D01*
X519730D01*
Y326040D01*
D02*
G37*
G36*
X463950Y351859D02*
X442948D01*
Y328861D01*
X458513D01*
X461012Y326362D01*
X460526Y325189D01*
X442889D01*
Y302191D01*
X449546D01*
Y299450D01*
X449546Y299450D01*
X449839Y297979D01*
X450672Y296732D01*
X477906Y269498D01*
X477498Y268792D01*
X476680Y265740D01*
Y262580D01*
X477498Y259528D01*
X479078Y256792D01*
X481312Y254558D01*
X484048Y252978D01*
X487100Y252160D01*
X490260D01*
X493312Y252978D01*
X496048Y254558D01*
X498282Y256792D01*
X499862Y259528D01*
X500149Y260598D01*
X509698D01*
X509834Y260092D01*
X511414Y257356D01*
X513648Y255122D01*
X516384Y253542D01*
X519436Y252724D01*
X522596D01*
X525648Y253542D01*
X528384Y255122D01*
X530618Y257356D01*
X532198Y260092D01*
X533016Y263144D01*
Y266304D01*
X532198Y269356D01*
X530618Y272092D01*
X528384Y274326D01*
X525648Y275906D01*
X522596Y276724D01*
X519436D01*
X516384Y275906D01*
X513648Y274326D01*
X511414Y272092D01*
X509834Y269356D01*
X509547Y268286D01*
X499998D01*
X499862Y268792D01*
X498282Y271528D01*
X496048Y273762D01*
X493312Y275342D01*
X490260Y276160D01*
X487100D01*
X484048Y275342D01*
X483342Y274934D01*
X457355Y300921D01*
X457527Y302191D01*
X463891D01*
Y321824D01*
X465064Y322310D01*
X468786Y318588D01*
Y305610D01*
X468786Y305610D01*
X469078Y304139D01*
X469912Y302892D01*
X477906Y294898D01*
X477498Y294192D01*
X476680Y291140D01*
Y287980D01*
X477498Y284928D01*
X479078Y282192D01*
X481312Y279958D01*
X484048Y278378D01*
X487100Y277560D01*
X490260D01*
X493312Y278378D01*
X496048Y279958D01*
X498282Y282192D01*
X499862Y284928D01*
X500680Y287980D01*
Y291140D01*
X499862Y294192D01*
X498282Y296928D01*
X496048Y299162D01*
X493312Y300742D01*
X490260Y301560D01*
X487100D01*
X484048Y300742D01*
X483342Y300334D01*
X476474Y307202D01*
Y309562D01*
X477743Y309902D01*
X479078Y307592D01*
X481312Y305358D01*
X484048Y303778D01*
X487100Y302960D01*
X490260D01*
X493312Y303778D01*
X496048Y305358D01*
X498282Y307592D01*
X499862Y310328D01*
X500680Y313380D01*
Y316540D01*
X499862Y319592D01*
X498282Y322328D01*
X496048Y324562D01*
X493312Y326142D01*
X490260Y326960D01*
X487100D01*
X484048Y326142D01*
X481312Y324562D01*
X479078Y322328D01*
X477743Y320018D01*
X476787Y320140D01*
X476447Y320312D01*
X476181Y321652D01*
X475348Y322899D01*
X475348Y322899D01*
X463950Y334297D01*
Y351859D01*
D02*
G37*
G36*
X226194Y306000D02*
X223806D01*
X221601Y305087D01*
X219914Y303399D01*
X219000Y301194D01*
Y298806D01*
X219914Y296601D01*
X221601Y294914D01*
X223806Y294000D01*
X226194D01*
X228399Y294914D01*
X230087Y296601D01*
X231000Y298806D01*
Y301194D01*
X230087Y303399D01*
X228399Y305087D01*
X226194Y306000D01*
D02*
G37*
G36*
X533040Y312730D02*
X508960D01*
Y312415D01*
X509781Y309353D01*
X511366Y306607D01*
X513607Y304366D01*
X516251Y302839D01*
X516366Y302167D01*
X516263Y301490D01*
X513648Y299980D01*
X511414Y297746D01*
X509834Y295010D01*
X509016Y291958D01*
Y288798D01*
X509834Y285746D01*
X511414Y283010D01*
X513648Y280776D01*
X516384Y279196D01*
X519436Y278378D01*
X522596D01*
X525648Y279196D01*
X528384Y280776D01*
X530618Y283010D01*
X532198Y285746D01*
X533016Y288798D01*
Y291958D01*
X532198Y295010D01*
X530618Y297746D01*
X528384Y299980D01*
X525759Y301496D01*
X525650Y302170D01*
X525759Y302845D01*
X528393Y304366D01*
X530634Y306607D01*
X532220Y309353D01*
X533040Y312415D01*
Y312730D01*
D02*
G37*
G36*
X522596Y251070D02*
X519436D01*
X516384Y250252D01*
X513648Y248672D01*
X511414Y246438D01*
X509834Y243702D01*
X509016Y240650D01*
Y237490D01*
X509834Y234438D01*
X511414Y231702D01*
X513648Y229468D01*
X516384Y227888D01*
X519436Y227070D01*
X522596D01*
X525648Y227888D01*
X528384Y229468D01*
X530618Y231702D01*
X532198Y234438D01*
X533016Y237490D01*
Y240650D01*
X532198Y243702D01*
X530618Y246438D01*
X528384Y248672D01*
X525648Y250252D01*
X522596Y251070D01*
D02*
G37*
G36*
X490260Y250760D02*
X487100D01*
X484048Y249942D01*
X481312Y248362D01*
X479078Y246128D01*
X477498Y243392D01*
X476680Y240340D01*
Y237180D01*
X477498Y234128D01*
X479078Y231392D01*
X481312Y229158D01*
X484048Y227578D01*
X487100Y226760D01*
X490260D01*
X493312Y227578D01*
X496048Y229158D01*
X498282Y231392D01*
X499862Y234128D01*
X500680Y237180D01*
Y240340D01*
X499862Y243392D01*
X498282Y246128D01*
X496048Y248362D01*
X493312Y249942D01*
X490260Y250760D01*
D02*
G37*
G36*
X337860D02*
X334700D01*
X331648Y249942D01*
X328912Y248362D01*
X326678Y246128D01*
X325098Y243392D01*
X324280Y240340D01*
Y237180D01*
X325098Y234128D01*
X326678Y231392D01*
X328912Y229158D01*
X331648Y227578D01*
X334700Y226760D01*
X337860D01*
X340912Y227578D01*
X343648Y229158D01*
X345882Y231392D01*
X347462Y234128D01*
X348280Y237180D01*
Y240340D01*
X347462Y243392D01*
X345882Y246128D01*
X343648Y248362D01*
X340912Y249942D01*
X337860Y250760D01*
D02*
G37*
G36*
X374856Y235500D02*
X371564D01*
X368385Y234648D01*
X365535Y233002D01*
X363208Y230675D01*
X361562Y227825D01*
X360710Y224646D01*
Y221354D01*
X361562Y218175D01*
X363208Y215325D01*
X365535Y212997D01*
X368385Y211352D01*
X371564Y210500D01*
X374856D01*
X378035Y211352D01*
X380885Y212997D01*
X383213Y215325D01*
X384858Y218175D01*
X385121Y219156D01*
X389010D01*
X389633Y218223D01*
X390669Y217532D01*
X391890Y217289D01*
X402130D01*
X403351Y217532D01*
X404387Y218223D01*
X405078Y219259D01*
X405321Y220480D01*
Y225520D01*
X405078Y226741D01*
X404387Y227777D01*
X403351Y228468D01*
X402130Y228711D01*
X391890D01*
X390669Y228468D01*
X389633Y227777D01*
X389010Y226844D01*
X385121D01*
X384858Y227825D01*
X383213Y230675D01*
X380885Y233002D01*
X378035Y234648D01*
X374856Y235500D01*
D02*
G37*
G36*
X426530Y219252D02*
X422680D01*
Y214770D01*
X429762D01*
Y216020D01*
X429516Y217257D01*
X428815Y218305D01*
X427767Y219006D01*
X426530Y219252D01*
D02*
G37*
G36*
X420140D02*
X416290D01*
X415053Y219006D01*
X414005Y218305D01*
X413304Y217257D01*
X413058Y216020D01*
Y214770D01*
X420140D01*
Y219252D01*
D02*
G37*
G36*
X429762Y212230D02*
X422680D01*
Y207748D01*
X426530D01*
X427767Y207994D01*
X428815Y208695D01*
X429516Y209743D01*
X429762Y210980D01*
Y212230D01*
D02*
G37*
G36*
X420140D02*
X413058D01*
Y210980D01*
X413304Y209743D01*
X414005Y208695D01*
X415053Y207994D01*
X416290Y207748D01*
X420140D01*
Y212230D01*
D02*
G37*
G36*
X451940Y215842D02*
X441671D01*
Y206572D01*
X451940D01*
Y215842D01*
D02*
G37*
G36*
X490260Y225360D02*
X487100D01*
X484048Y224542D01*
X481312Y222962D01*
X479078Y220728D01*
X477498Y217992D01*
X476680Y214940D01*
Y211780D01*
X477498Y208728D01*
X479078Y205992D01*
X481312Y203758D01*
X484048Y202178D01*
X487100Y201360D01*
X490260D01*
X493312Y202178D01*
X496048Y203758D01*
X498282Y205992D01*
X499862Y208728D01*
X500680Y211780D01*
Y214940D01*
X499862Y217992D01*
X498282Y220728D01*
X496048Y222962D01*
X493312Y224542D01*
X490260Y225360D01*
D02*
G37*
G36*
X337860D02*
X334700D01*
X331648Y224542D01*
X328912Y222962D01*
X326678Y220728D01*
X325098Y217992D01*
X324280Y214940D01*
Y211780D01*
X325098Y208728D01*
X326678Y205992D01*
X328912Y203758D01*
X331648Y202178D01*
X334700Y201360D01*
X337860D01*
X340912Y202178D01*
X343648Y203758D01*
X345882Y205992D01*
X347462Y208728D01*
X348280Y211780D01*
Y214940D01*
X347462Y217992D01*
X345882Y220728D01*
X343648Y222962D01*
X340912Y224542D01*
X337860Y225360D01*
D02*
G37*
G36*
X451940Y204032D02*
X441671D01*
Y194760D01*
X451940D01*
Y204032D01*
D02*
G37*
G36*
X490260Y199960D02*
X487100D01*
X484048Y199142D01*
X481312Y197562D01*
X479078Y195328D01*
X477498Y192592D01*
X476680Y189540D01*
Y186380D01*
X477498Y183328D01*
X479078Y180592D01*
X481312Y178358D01*
X484048Y176778D01*
X487100Y175960D01*
X490260D01*
X493312Y176778D01*
X496048Y178358D01*
X498282Y180592D01*
X499862Y183328D01*
X500680Y186380D01*
Y189540D01*
X499862Y192592D01*
X498282Y195328D01*
X496048Y197562D01*
X493312Y199142D01*
X490260Y199960D01*
D02*
G37*
G36*
X374856Y176500D02*
X371564D01*
X368385Y175648D01*
X365535Y174002D01*
X363208Y171675D01*
X361562Y168825D01*
X360710Y165646D01*
Y162354D01*
X361562Y159175D01*
X363208Y156325D01*
X365535Y153997D01*
X368385Y152352D01*
X371564Y151500D01*
X374856D01*
X378035Y152352D01*
X380885Y153997D01*
X383213Y156325D01*
X384858Y159175D01*
X385121Y160156D01*
X389010D01*
X389633Y159223D01*
X390669Y158532D01*
X391890Y158289D01*
X402130D01*
X403351Y158532D01*
X404387Y159223D01*
X405078Y160259D01*
X405321Y161480D01*
Y166520D01*
X405078Y167741D01*
X404387Y168777D01*
X403351Y169468D01*
X402130Y169711D01*
X391890D01*
X390669Y169468D01*
X389633Y168777D01*
X389010Y167844D01*
X385121D01*
X384858Y168825D01*
X383213Y171675D01*
X380885Y174002D01*
X378035Y175648D01*
X374856Y176500D01*
D02*
G37*
G36*
X426530Y160252D02*
X422680D01*
Y155770D01*
X429762D01*
Y157020D01*
X429516Y158257D01*
X428815Y159305D01*
X427767Y160006D01*
X426530Y160252D01*
D02*
G37*
G36*
X420140D02*
X416290D01*
X415053Y160006D01*
X414005Y159305D01*
X413304Y158257D01*
X413058Y157020D01*
Y155770D01*
X420140D01*
Y160252D01*
D02*
G37*
G36*
X490260Y174560D02*
X487100D01*
X484048Y173742D01*
X481312Y172162D01*
X479078Y169928D01*
X477498Y167192D01*
X476680Y164140D01*
Y160980D01*
X477498Y157928D01*
X479078Y155192D01*
X481312Y152958D01*
X484048Y151378D01*
X487100Y150560D01*
X490260D01*
X493312Y151378D01*
X496048Y152958D01*
X498282Y155192D01*
X499862Y157928D01*
X500680Y160980D01*
Y164140D01*
X499862Y167192D01*
X498282Y169928D01*
X496048Y172162D01*
X493312Y173742D01*
X490260Y174560D01*
D02*
G37*
G36*
X429762Y153230D02*
X422680D01*
Y148748D01*
X426530D01*
X427767Y148994D01*
X428815Y149695D01*
X429516Y150743D01*
X429762Y151980D01*
Y153230D01*
D02*
G37*
G36*
X420140D02*
X413058D01*
Y151980D01*
X413304Y150743D01*
X414005Y149695D01*
X415053Y148994D01*
X416290Y148748D01*
X420140D01*
Y153230D01*
D02*
G37*
G36*
X451790Y156692D02*
X441521D01*
Y147422D01*
X451790D01*
Y156692D01*
D02*
G37*
G36*
X464599Y144881D02*
X454330D01*
Y135611D01*
X464599D01*
Y144881D01*
D02*
G37*
G36*
X451790D02*
X441521D01*
Y135611D01*
X451790D01*
Y144881D01*
D02*
G37*
G36*
X337860Y149160D02*
X334700D01*
X331648Y148342D01*
X328912Y146762D01*
X326678Y144528D01*
X325098Y141792D01*
X324280Y138740D01*
Y135580D01*
X325098Y132528D01*
X326678Y129792D01*
X328912Y127558D01*
X331648Y125978D01*
X334700Y125160D01*
X337860D01*
X340912Y125978D01*
X343648Y127558D01*
X345882Y129792D01*
X347462Y132528D01*
X348280Y135580D01*
Y138740D01*
X347462Y141792D01*
X345882Y144528D01*
X343648Y146762D01*
X340912Y148342D01*
X337860Y149160D01*
D02*
G37*
G36*
X464470Y128045D02*
X441471D01*
Y122883D01*
X440201Y122255D01*
X438404Y123000D01*
X436017D01*
X433811Y122086D01*
X432319Y120594D01*
X429243D01*
X428787Y121277D01*
X427751Y121968D01*
X426530Y122211D01*
X416290D01*
X415069Y121968D01*
X414033Y121277D01*
X413342Y120241D01*
X413099Y119020D01*
Y113980D01*
X413342Y112759D01*
X414033Y111723D01*
X415069Y111032D01*
X416290Y110789D01*
X426530D01*
X427751Y111032D01*
X428787Y111723D01*
X429478Y112759D01*
X429508Y112906D01*
X432819D01*
X433811Y111913D01*
X436017Y111000D01*
X438404D01*
X440201Y111745D01*
X441471Y111117D01*
Y107043D01*
X464470D01*
Y128045D01*
D02*
G37*
G36*
X20640Y128664D02*
X1870D01*
Y119394D01*
X20640D01*
Y128664D01*
D02*
G37*
G36*
X490265Y123800D02*
X489950D01*
Y113030D01*
X500720D01*
Y113345D01*
X499899Y116407D01*
X498314Y119153D01*
X496073Y121394D01*
X493327Y122979D01*
X490265Y123800D01*
D02*
G37*
G36*
X487410D02*
X487095D01*
X484033Y122979D01*
X481287Y121394D01*
X479046Y119153D01*
X477461Y116407D01*
X476640Y113345D01*
Y113030D01*
X487410D01*
Y123800D01*
D02*
G37*
G36*
X20640Y116854D02*
X1870D01*
Y107584D01*
X20640D01*
Y116854D01*
D02*
G37*
G36*
X369757Y132059D02*
X366803D01*
X366507Y132000D01*
X366206D01*
X363308Y131424D01*
X363030Y131308D01*
X362734Y131250D01*
X360004Y130119D01*
X359754Y129951D01*
X359476Y129836D01*
X357019Y128195D01*
X356806Y127982D01*
X356555Y127814D01*
X354466Y125725D01*
X354299Y125474D01*
X354086Y125261D01*
X352444Y122804D01*
X352329Y122526D01*
X352161Y122276D01*
X351031Y119546D01*
X350972Y119250D01*
X350856Y118972D01*
X350280Y116074D01*
Y115773D01*
X350221Y115477D01*
Y112523D01*
X350280Y112227D01*
Y111926D01*
X350856Y109028D01*
X350972Y108750D01*
X351031Y108454D01*
X352161Y105724D01*
X352329Y105474D01*
X352444Y105196D01*
X353639Y103406D01*
X352653Y102597D01*
X347602Y107648D01*
X348280Y110180D01*
Y113340D01*
X347462Y116392D01*
X345882Y119128D01*
X343648Y121362D01*
X340912Y122942D01*
X337860Y123760D01*
X334700D01*
X331648Y122942D01*
X328912Y121362D01*
X326678Y119128D01*
X325098Y116392D01*
X324280Y113340D01*
Y110180D01*
X325098Y107128D01*
X326678Y104392D01*
X328912Y102158D01*
X331648Y100578D01*
X334700Y99760D01*
X337860D01*
X340392Y100438D01*
X343065Y97766D01*
X342285Y96749D01*
X340912Y97542D01*
X337860Y98360D01*
X334700D01*
X331648Y97542D01*
X328912Y95962D01*
X326678Y93728D01*
X325098Y90992D01*
X324280Y87940D01*
Y84780D01*
X325098Y81728D01*
X326678Y78992D01*
X328912Y76758D01*
X331648Y75178D01*
X334700Y74360D01*
X337860D01*
X340912Y75178D01*
X343648Y76758D01*
X345882Y78992D01*
X347462Y81728D01*
X348280Y84780D01*
Y87940D01*
X347462Y90992D01*
X346669Y92365D01*
X347686Y93145D01*
X362924Y77907D01*
X363085Y62223D01*
X360625Y60802D01*
X358298Y58475D01*
X356652Y55625D01*
X355800Y52446D01*
Y49154D01*
X356652Y45975D01*
X358298Y43125D01*
X360625Y40798D01*
X363475Y39152D01*
X366654Y38300D01*
X369946D01*
X373125Y39152D01*
X375975Y40798D01*
X378302Y43125D01*
X379948Y45975D01*
X380800Y49154D01*
Y52446D01*
X379948Y55625D01*
X378302Y58475D01*
X375975Y60802D01*
X373280Y62359D01*
X373098Y80092D01*
X372899Y81040D01*
X372710Y81991D01*
X372695Y82013D01*
X372690Y82039D01*
X372143Y82839D01*
X371605Y83645D01*
X356877Y98373D01*
X357686Y99360D01*
X359476Y98164D01*
X359754Y98049D01*
X360004Y97881D01*
X362734Y96750D01*
X363030Y96692D01*
X363308Y96576D01*
X366206Y96000D01*
X366507D01*
X366803Y95941D01*
X369757D01*
X370053Y96000D01*
X370354D01*
X373252Y96576D01*
X373530Y96692D01*
X373826Y96750D01*
X376556Y97881D01*
X376806Y98049D01*
X377085Y98164D01*
X379541Y99805D01*
X379754Y100019D01*
X380005Y100186D01*
X382094Y102275D01*
X382262Y102526D01*
X382475Y102739D01*
X384116Y105196D01*
X384231Y105474D01*
X384399Y105724D01*
X385530Y108454D01*
X385588Y108750D01*
X385704Y109028D01*
X386280Y111926D01*
Y112227D01*
X386339Y112523D01*
Y115477D01*
X386280Y115773D01*
Y116074D01*
X385704Y118972D01*
X385588Y119250D01*
X385530Y119546D01*
X384399Y122276D01*
X384231Y122526D01*
X384116Y122804D01*
X382475Y125261D01*
X382262Y125474D01*
X382094Y125725D01*
X380005Y127814D01*
X379754Y127982D01*
X379541Y128195D01*
X377085Y129836D01*
X376806Y129951D01*
X376556Y130119D01*
X373826Y131250D01*
X373530Y131308D01*
X373252Y131424D01*
X370354Y132000D01*
X370053D01*
X369757Y132059D01*
D02*
G37*
G36*
X500720Y110490D02*
X489950D01*
Y99720D01*
X490265D01*
X493327Y100541D01*
X496073Y102126D01*
X498314Y104367D01*
X499899Y107113D01*
X500720Y110175D01*
Y110490D01*
D02*
G37*
G36*
X487410D02*
X476640D01*
Y110175D01*
X477461Y107113D01*
X479046Y104367D01*
X481287Y102126D01*
X484033Y100541D01*
X487095Y99720D01*
X487410D01*
Y110490D01*
D02*
G37*
G36*
X426530Y103252D02*
X422680D01*
Y98770D01*
X429762D01*
Y100020D01*
X429516Y101257D01*
X428815Y102305D01*
X427767Y103006D01*
X426530Y103252D01*
D02*
G37*
G36*
X420140D02*
X416290D01*
X415053Y103006D01*
X414005Y102305D01*
X413304Y101257D01*
X413058Y100020D01*
Y98770D01*
X420140D01*
Y103252D01*
D02*
G37*
G36*
X429762Y96230D02*
X422680D01*
Y91748D01*
X426530D01*
X427767Y91994D01*
X428815Y92695D01*
X429516Y93743D01*
X429762Y94980D01*
Y96230D01*
D02*
G37*
G36*
X420140D02*
X413058D01*
Y94980D01*
X413304Y93743D01*
X414005Y92695D01*
X415053Y91994D01*
X416290Y91748D01*
X420140D01*
Y96230D01*
D02*
G37*
G36*
X464510Y100086D02*
X454240D01*
Y90815D01*
X464510D01*
Y100086D01*
D02*
G37*
G36*
X451701D02*
X441431D01*
Y90815D01*
X451701D01*
Y100086D01*
D02*
G37*
G36*
X490265Y98400D02*
X489950D01*
Y87630D01*
X500720D01*
Y87945D01*
X499899Y91007D01*
X498314Y93753D01*
X496073Y95994D01*
X493327Y97579D01*
X490265Y98400D01*
D02*
G37*
G36*
X487410D02*
X487095D01*
X484033Y97579D01*
X481287Y95994D01*
X479046Y93753D01*
X477461Y91007D01*
X476640Y87945D01*
Y87630D01*
X487410D01*
Y98400D01*
D02*
G37*
G36*
X464510Y88275D02*
X454240D01*
Y79004D01*
X464510D01*
Y88275D01*
D02*
G37*
G36*
X451701D02*
X441431D01*
Y79004D01*
X451701D01*
Y88275D01*
D02*
G37*
G36*
X500720Y85090D02*
X489950D01*
Y74320D01*
X490265D01*
X493327Y75141D01*
X496073Y76726D01*
X498314Y78967D01*
X499899Y81713D01*
X500720Y84775D01*
Y85090D01*
D02*
G37*
G36*
X487410D02*
X476640D01*
Y84775D01*
X477461Y81713D01*
X479046Y78967D01*
X481287Y76726D01*
X484033Y75141D01*
X487095Y74320D01*
X487410D01*
Y85090D01*
D02*
G37*
G36*
X402130Y112711D02*
X391890D01*
X390669Y112468D01*
X389633Y111777D01*
X388942Y110741D01*
X388699Y109520D01*
Y104480D01*
X388942Y103259D01*
X389633Y102223D01*
X390669Y101532D01*
X391890Y101289D01*
X393166D01*
Y92643D01*
X390325Y91003D01*
X387998Y88675D01*
X386352Y85825D01*
X385500Y82646D01*
Y79354D01*
X386352Y76175D01*
X387998Y73325D01*
X390325Y70998D01*
X393175Y69352D01*
X396354Y68500D01*
X399646D01*
X402825Y69352D01*
X405675Y70998D01*
X408003Y73325D01*
X409648Y76175D01*
X410500Y79354D01*
Y82646D01*
X409648Y85825D01*
X408003Y88675D01*
X405675Y91003D01*
X402825Y92648D01*
X400854Y93176D01*
Y101289D01*
X402130D01*
X403351Y101532D01*
X404387Y102223D01*
X405078Y103259D01*
X405321Y104480D01*
Y109520D01*
X405078Y110741D01*
X404387Y111777D01*
X403351Y112468D01*
X402130Y112711D01*
D02*
G37*
G36*
X20640Y73264D02*
X1870D01*
Y63994D01*
X20640D01*
Y73264D01*
D02*
G37*
G36*
X337865Y73000D02*
X337550D01*
Y62230D01*
X348320D01*
Y62545D01*
X347500Y65607D01*
X345914Y68353D01*
X343673Y70594D01*
X340927Y72179D01*
X337865Y73000D01*
D02*
G37*
G36*
X335010D02*
X334695D01*
X331633Y72179D01*
X328887Y70594D01*
X326646Y68353D01*
X325061Y65607D01*
X324240Y62545D01*
Y62230D01*
X335010D01*
Y73000D01*
D02*
G37*
G36*
X20640Y61454D02*
X1870D01*
Y52184D01*
X20640D01*
Y61454D01*
D02*
G37*
G36*
X490260Y72960D02*
X487100D01*
X484048Y72142D01*
X481312Y70562D01*
X479078Y68328D01*
X477498Y65592D01*
X476680Y62540D01*
Y59380D01*
X477498Y56328D01*
X479078Y53592D01*
X481312Y51358D01*
X484048Y49778D01*
X487100Y48960D01*
X490260D01*
X493312Y49778D01*
X496048Y51358D01*
X498282Y53592D01*
X499862Y56328D01*
X500680Y59380D01*
Y62540D01*
X499862Y65592D01*
X498282Y68328D01*
X496048Y70562D01*
X493312Y72142D01*
X490260Y72960D01*
D02*
G37*
G36*
X348320Y59690D02*
X337550D01*
Y48920D01*
X337865D01*
X340927Y49741D01*
X343673Y51326D01*
X345914Y53567D01*
X347500Y56313D01*
X348320Y59375D01*
Y59690D01*
D02*
G37*
G36*
X335010D02*
X324240D01*
Y59375D01*
X325061Y56313D01*
X326646Y53567D01*
X328887Y51326D01*
X331633Y49741D01*
X334695Y48920D01*
X335010D01*
Y59690D01*
D02*
G37*
G36*
X226194Y56000D02*
X223806D01*
X221601Y55087D01*
X219914Y53399D01*
X219000Y51193D01*
Y48807D01*
X219914Y46601D01*
X221601Y44913D01*
X223806Y44000D01*
X226194D01*
X228399Y44913D01*
X230087Y46601D01*
X231000Y48807D01*
Y51193D01*
X230087Y53399D01*
X228399Y55087D01*
X226194Y56000D01*
D02*
G37*
G36*
X176194D02*
X173806D01*
X171601Y55087D01*
X169914Y53399D01*
X169000Y51193D01*
Y48807D01*
X169914Y46601D01*
X171601Y44913D01*
X173806Y44000D01*
X176194D01*
X178399Y44913D01*
X180087Y46601D01*
X181000Y48807D01*
Y51193D01*
X180087Y53399D01*
X178399Y55087D01*
X176194Y56000D01*
D02*
G37*
G36*
X126194D02*
X123806D01*
X121601Y55087D01*
X119914Y53399D01*
X119000Y51193D01*
Y48807D01*
X119914Y46601D01*
X121601Y44913D01*
X123806Y44000D01*
X126194D01*
X128399Y44913D01*
X130087Y46601D01*
X131000Y48807D01*
Y51193D01*
X130087Y53399D01*
X128399Y55087D01*
X126194Y56000D01*
D02*
G37*
G36*
X490260Y47560D02*
X487100D01*
X484048Y46742D01*
X481312Y45162D01*
X479078Y42928D01*
X477498Y40192D01*
X476680Y37140D01*
Y33980D01*
X477498Y30928D01*
X479078Y28192D01*
X481312Y25958D01*
X484048Y24378D01*
X487100Y23560D01*
X490260D01*
X493312Y24378D01*
X496048Y25958D01*
X498282Y28192D01*
X499862Y30928D01*
X500680Y33980D01*
Y37140D01*
X499862Y40192D01*
X498282Y42928D01*
X496048Y45162D01*
X493312Y46742D01*
X490260Y47560D01*
D02*
G37*
G36*
X337860D02*
X334700D01*
X331648Y46742D01*
X328912Y45162D01*
X326678Y42928D01*
X325098Y40192D01*
X324280Y37140D01*
Y33980D01*
X325098Y30928D01*
X326678Y28192D01*
X328912Y25958D01*
X331648Y24378D01*
X334700Y23560D01*
X337860D01*
X340912Y24378D01*
X343648Y25958D01*
X345882Y28192D01*
X347462Y30928D01*
X348280Y33980D01*
Y37140D01*
X347462Y40192D01*
X345882Y42928D01*
X343648Y45162D01*
X340912Y46742D01*
X337860Y47560D01*
D02*
G37*
G36*
X490232Y22200D02*
X489917D01*
Y11430D01*
X500687D01*
Y11745D01*
X499866Y14807D01*
X498281Y17553D01*
X496040Y19794D01*
X493294Y21379D01*
X490232Y22200D01*
D02*
G37*
G36*
X487377D02*
X487062D01*
X484000Y21379D01*
X481254Y19794D01*
X479012Y17553D01*
X477427Y14807D01*
X476607Y11745D01*
Y11430D01*
X487377D01*
Y22200D01*
D02*
G37*
%LPD*%
D14*
X289737Y244018D02*
X319786Y274066D01*
Y318786D01*
X279578Y244018D02*
X289737D01*
X279400Y243840D02*
X279578Y244018D01*
X479493Y141717D02*
X479669D01*
X484226Y137160D01*
X488680D01*
X332000Y331000D02*
X380000D01*
X467000Y154210D02*
Y244000D01*
X380000Y331000D02*
X467000Y244000D01*
Y154210D02*
X479493Y141717D01*
X319786Y318786D02*
X332000Y331000D01*
X47808Y224750D02*
X289092D01*
X6756Y265802D02*
Y314604D01*
Y265802D02*
X47808Y224750D01*
X289092D02*
X321818Y192024D01*
Y175260D02*
Y192024D01*
Y175260D02*
X334264Y162814D01*
X9879Y317726D02*
X16228D01*
X6756Y314604D02*
X9879Y317726D01*
X16853Y263817D02*
Y267881D01*
X50880Y229790D02*
X294450D01*
X16256Y268478D02*
X16853Y267881D01*
Y263817D02*
X50880Y229790D01*
X294450D02*
X336280Y187960D01*
X287678Y234830D02*
X324826Y271978D01*
Y278106D01*
X125342Y234830D02*
X287678D01*
X324826Y278106D02*
X336280Y289560D01*
X16002Y344170D02*
X125342Y234830D01*
X23114Y242316D02*
X45720Y219710D01*
X15494Y242316D02*
X23114D01*
X45720Y219710D02*
X284480D01*
X301022Y203168D01*
Y197580D02*
X302006Y196596D01*
X301022Y197580D02*
Y203168D01*
X488680Y264160D02*
X488962Y264442D01*
X520734D01*
X521016Y264724D01*
X422760Y233300D02*
X454210D01*
X472630Y305610D02*
X488680Y289560D01*
X472630Y305610D02*
Y320181D01*
X453448Y339362D02*
X472630Y320181D01*
X453448Y339362D02*
Y340360D01*
X453390Y299450D02*
X488680Y264160D01*
X453390Y299450D02*
Y313690D01*
X421640Y317442D02*
Y327660D01*
Y317442D02*
X425392Y313690D01*
X421640Y327660D02*
Y336550D01*
X425450Y340360D01*
X421660Y116750D02*
X436960D01*
X373210Y164000D02*
X397010D01*
X453060Y117150D02*
X453210Y117000D01*
X437210D02*
X437360Y117150D01*
X436960Y116750D02*
X437210Y117000D01*
X397010Y86200D02*
X398000Y81000D01*
X435960Y173750D02*
X436360Y174150D01*
X422760Y173750D02*
X435960D01*
X422510Y174000D02*
X422760Y173750D01*
X436360Y174150D02*
X454060D01*
X454210Y174300D01*
X421410Y116500D02*
X421660Y116750D01*
X397010Y86200D02*
Y107000D01*
X437360Y117150D02*
X453060D01*
X373210Y223000D02*
X397010D01*
D24*
X600Y118124D02*
D03*
Y62724D02*
D03*
D38*
X336280Y35560D02*
X337830Y37110D01*
X336280Y111760D02*
X368000Y80040D01*
X368300Y50800D01*
D39*
X336280Y238760D02*
D03*
X488680Y137160D02*
D03*
X336280Y264160D02*
D03*
Y162560D02*
D03*
X311000Y400000D02*
D03*
X336280Y314960D02*
D03*
Y187960D02*
D03*
Y60960D02*
D03*
X488647Y10160D02*
D03*
X521000Y314000D02*
D03*
X488680Y86360D02*
D03*
Y111760D02*
D03*
X287000Y400000D02*
D03*
X336280Y289560D02*
D03*
Y213360D02*
D03*
Y35560D02*
D03*
Y10160D02*
D03*
Y137160D02*
D03*
X488680Y264160D02*
D03*
Y238760D02*
D03*
Y213360D02*
D03*
Y35560D02*
D03*
X336280Y86360D02*
D03*
X488680Y187960D02*
D03*
Y60960D02*
D03*
X336280Y111760D02*
D03*
X488680Y162560D02*
D03*
X521016Y290378D02*
D03*
Y264724D02*
D03*
Y239070D02*
D03*
X488680Y314960D02*
D03*
Y289560D02*
D03*
D40*
X280000Y90000D02*
D03*
X225000Y300000D02*
D03*
Y50000D02*
D03*
X175000D02*
D03*
X125000D02*
D03*
X75000Y300000D02*
D03*
X125000D02*
D03*
X175000D02*
D03*
X75000Y200000D02*
D03*
X125000D02*
D03*
X175000D02*
D03*
X225000D02*
D03*
X125000Y250000D02*
D03*
X279400Y243840D02*
D03*
X15985Y318874D02*
D03*
X16256Y268478D02*
D03*
X175000Y150000D02*
D03*
Y350000D02*
D03*
X125000D02*
D03*
X75000D02*
D03*
X175000Y250000D02*
D03*
X75000D02*
D03*
X30000Y40000D02*
D03*
X10000Y140000D02*
D03*
X30000D02*
D03*
X90000Y100000D02*
D03*
Y80000D02*
D03*
X70000Y50000D02*
D03*
Y70000D02*
D03*
Y90000D02*
D03*
Y130000D02*
D03*
Y110000D02*
D03*
X50000Y140000D02*
D03*
Y120000D02*
D03*
Y100000D02*
D03*
Y80000D02*
D03*
Y60000D02*
D03*
Y40000D02*
D03*
X317000Y226000D02*
D03*
X435210Y146000D02*
D03*
Y88000D02*
D03*
X11000Y41000D02*
D03*
X435210Y205000D02*
D03*
X125000Y100000D02*
D03*
X225000Y350000D02*
D03*
Y250000D02*
D03*
X175000Y100000D02*
D03*
X225000D02*
D03*
X125000Y150000D02*
D03*
X225000D02*
D03*
X16002Y344170D02*
D03*
X302006Y196596D02*
D03*
X15494Y242316D02*
D03*
X421640Y327660D02*
D03*
X437417Y234000D02*
D03*
X437210Y117000D02*
D03*
X436210Y174000D02*
D03*
D41*
X452971Y89545D02*
D03*
X453060Y146152D02*
D03*
X453210Y205301D02*
D03*
X453060Y174150D02*
D03*
X452971Y117543D02*
D03*
X453210Y233300D02*
D03*
D42*
X421410Y213500D02*
D03*
Y154500D02*
D03*
Y97500D02*
D03*
X397010Y223000D02*
D03*
X421410Y232500D02*
D03*
X397010Y107000D02*
D03*
X421410Y116500D02*
D03*
X397010Y164000D02*
D03*
X421410Y173500D02*
D03*
D43*
X453448Y340360D02*
D03*
X425450D02*
D03*
X425392Y313690D02*
D03*
X453390D02*
D03*
D44*
X368300Y50800D02*
D03*
X373210Y164000D02*
D03*
X373210Y223000D02*
D03*
X398000Y81000D02*
D03*
M02*
