G04*
G04 #@! TF.GenerationSoftware,Altium Limited,Altium Designer,25.5.2 (35)*
G04*
G04 Layer_Color=8388736*
%FSLAX44Y44*%
%MOMM*%
G71*
G04*
G04 #@! TF.SameCoordinates,A89DEE48-1FC4-4ACA-BA4E-A691071BA7A7*
G04*
G04*
G04 #@! TF.FilePolarity,Negative*
G04*
G01*
G75*
%ADD20R,1.7000X0.9500*%
%ADD21R,1.8000X1.0000*%
G04:AMPARAMS|DCode=23|XSize=1.2mm|YSize=1mm|CornerRadius=0.5mm|HoleSize=0mm|Usage=FLASHONLY|Rotation=270.000|XOffset=0mm|YOffset=0mm|HoleType=Round|Shape=RoundedRectangle|*
%AMROUNDEDRECTD23*
21,1,1.2000,0.0000,0,0,270.0*
21,1,0.2000,1.0000,0,0,270.0*
1,1,1.0000,0.0000,-0.1000*
1,1,1.0000,0.0000,0.1000*
1,1,1.0000,0.0000,0.1000*
1,1,1.0000,0.0000,-0.1000*
%
%ADD23ROUNDEDRECTD23*%
%ADD24R,3.5000X1.6000*%
%ADD26R,1.0000X1.2000*%
G04:AMPARAMS|DCode=27|XSize=2.5mm|YSize=3.1821mm|CornerRadius=1.0875mm|HoleSize=0mm|Usage=FLASHONLY|Rotation=270.000|XOffset=0mm|YOffset=0mm|HoleType=Round|Shape=RoundedRectangle|*
%AMROUNDEDRECTD27*
21,1,2.5000,1.0071,0,0,270.0*
21,1,0.3250,3.1821,0,0,270.0*
1,1,2.1750,-0.5036,-0.1625*
1,1,2.1750,-0.5036,0.1625*
1,1,2.1750,0.5036,0.1625*
1,1,2.1750,0.5036,-0.1625*
%
%ADD27ROUNDEDRECTD27*%
%ADD28R,3.5000X1.2000*%
%ADD29R,2.6016X1.6016*%
%ADD30R,1.7000X3.6000*%
%ADD31R,1.4599X1.6301*%
%ADD32R,1.9000X1.2500*%
%ADD33C,2.0000*%
%ADD34C,0.8000*%
D20*
X297180Y351760D02*
D03*
Y379760D02*
D03*
X500000Y375000D02*
D03*
Y347000D02*
D03*
D21*
X315920Y351000D02*
D03*
Y381000D02*
D03*
D23*
X412100Y404950D02*
D03*
X435000D02*
D03*
D24*
X600Y118124D02*
D03*
Y62724D02*
D03*
D26*
X457900Y404950D02*
D03*
D27*
X435000Y339050D02*
D03*
D28*
X600Y90424D02*
D03*
D29*
X28082Y191670D02*
D03*
X268081Y242470D02*
D03*
X28082Y217070D02*
D03*
Y318670D02*
D03*
X268081D02*
D03*
Y344070D02*
D03*
X28082Y293270D02*
D03*
Y267870D02*
D03*
X268081Y64870D02*
D03*
Y90270D02*
D03*
Y115670D02*
D03*
Y191670D02*
D03*
Y217070D02*
D03*
Y369470D02*
D03*
X28082D02*
D03*
Y115670D02*
D03*
Y64870D02*
D03*
Y344070D02*
D03*
X268081Y267870D02*
D03*
Y293270D02*
D03*
X28082Y242470D02*
D03*
Y90270D02*
D03*
D30*
X365000Y341000D02*
D03*
Y397000D02*
D03*
D31*
X305000Y55300D02*
D03*
X519536Y55048D02*
D03*
Y95748D02*
D03*
X305000Y96000D02*
D03*
D32*
X480000Y378000D02*
D03*
Y348000D02*
D03*
D33*
X336280Y238760D02*
D03*
X488680Y137160D02*
D03*
X336280Y264160D02*
D03*
Y162560D02*
D03*
X311000Y400000D02*
D03*
X336280Y314960D02*
D03*
Y187960D02*
D03*
Y60960D02*
D03*
X488647Y10160D02*
D03*
X521000Y314000D02*
D03*
X488680Y86360D02*
D03*
Y111760D02*
D03*
X287000Y400000D02*
D03*
X336280Y289560D02*
D03*
Y213360D02*
D03*
Y35560D02*
D03*
Y10160D02*
D03*
Y137160D02*
D03*
X488680Y264160D02*
D03*
Y238760D02*
D03*
Y213360D02*
D03*
Y35560D02*
D03*
X336280Y86360D02*
D03*
X488680Y187960D02*
D03*
Y60960D02*
D03*
X336280Y111760D02*
D03*
X488680Y162560D02*
D03*
X521016Y290378D02*
D03*
Y264724D02*
D03*
Y239070D02*
D03*
X488680Y314960D02*
D03*
Y289560D02*
D03*
D34*
X280000Y90000D02*
D03*
X225000Y300000D02*
D03*
Y50000D02*
D03*
X175000D02*
D03*
X125000D02*
D03*
X75000Y300000D02*
D03*
X125000D02*
D03*
X175000D02*
D03*
X75000Y200000D02*
D03*
X125000D02*
D03*
X175000D02*
D03*
X225000D02*
D03*
X125000Y250000D02*
D03*
X279400Y243840D02*
D03*
X15985Y318874D02*
D03*
X16256Y268478D02*
D03*
X175000Y150000D02*
D03*
Y350000D02*
D03*
X125000D02*
D03*
X75000D02*
D03*
X175000Y250000D02*
D03*
X75000D02*
D03*
X30000Y40000D02*
D03*
X10000Y140000D02*
D03*
X30000D02*
D03*
X90000Y100000D02*
D03*
Y80000D02*
D03*
X70000Y50000D02*
D03*
Y70000D02*
D03*
Y90000D02*
D03*
Y130000D02*
D03*
Y110000D02*
D03*
X50000Y140000D02*
D03*
Y120000D02*
D03*
Y100000D02*
D03*
Y80000D02*
D03*
Y60000D02*
D03*
Y40000D02*
D03*
X317000Y226000D02*
D03*
X435210Y146000D02*
D03*
Y88000D02*
D03*
X11000Y41000D02*
D03*
X435210Y205000D02*
D03*
X125000Y100000D02*
D03*
X225000Y350000D02*
D03*
Y250000D02*
D03*
X175000Y100000D02*
D03*
X225000D02*
D03*
X125000Y150000D02*
D03*
X225000D02*
D03*
X16002Y344170D02*
D03*
X302006Y196596D02*
D03*
X15494Y242316D02*
D03*
X421640Y327660D02*
D03*
X437417Y234000D02*
D03*
X437210Y117000D02*
D03*
X436210Y174000D02*
D03*
M02*
