G04*
G04 #@! TF.GenerationSoftware,Altium Limited,Altium Designer,25.5.2 (35)*
G04*
G04 Layer_Color=65535*
%FSLAX44Y44*%
%MOMM*%
G71*
G04*
G04 #@! TF.SameCoordinates,A7D09D84-BF10-4A22-89B3-4961FFB17041*
G04*
G04*
G04 #@! TF.FilePolarity,Positive*
G04*
G01*
G75*
%ADD10C,0.6000*%
%ADD11C,0.2500*%
%ADD12C,0.2286*%
%ADD13C,0.1016*%
%ADD14C,0.2540*%
%ADD15C,0.2000*%
%ADD16C,0.1778*%
%ADD17C,0.1270*%
%ADD18C,0.1524*%
D10*
X283083Y46168D02*
G03*
X283083Y46168I-3000J0D01*
G01*
D11*
X471250Y404950D02*
G03*
X471250Y404950I-1250J0D01*
G01*
X37600Y90424D02*
G03*
X37600Y90424I-1250J0D01*
G01*
D12*
X511266Y75702D02*
G03*
X527532Y75702I8133J0D01*
G01*
D02*
G03*
X511266Y75702I-8133J0D01*
G01*
X296150Y76034D02*
G03*
X312417Y76034I8133J0D01*
G01*
D02*
G03*
X296150Y76034I-8133J0D01*
G01*
X501243Y2844D02*
Y327965D01*
X323443Y304D02*
X501243D01*
X323443D02*
Y327965D01*
X501243D01*
D13*
X11429Y318999D02*
D03*
X4876D02*
D03*
D14*
X28082Y395570D02*
X268082D01*
X28082Y10570D02*
X268082D01*
X28082Y379281D02*
Y395570D01*
Y353881D02*
Y359658D01*
Y328481D02*
Y334258D01*
Y303081D02*
Y308858D01*
Y277681D02*
Y283458D01*
Y252281D02*
Y258058D01*
Y226881D02*
Y232658D01*
Y201481D02*
Y207258D01*
Y125481D02*
Y181858D01*
Y100081D02*
Y105858D01*
Y74681D02*
Y80458D01*
Y10570D02*
Y55058D01*
X268082Y379281D02*
Y395570D01*
Y353881D02*
Y359658D01*
Y328481D02*
Y334258D01*
Y303081D02*
Y308858D01*
Y277681D02*
Y283458D01*
Y252281D02*
Y258058D01*
Y226881D02*
Y232658D01*
Y201481D02*
Y207258D01*
Y125481D02*
Y181858D01*
Y100081D02*
Y105858D01*
Y74681D02*
Y80458D01*
Y10570D02*
Y55058D01*
X58082Y377670D02*
X238082D01*
Y38670D02*
Y377670D01*
X112082Y38670D02*
X238082D01*
X112082D02*
Y98670D01*
X58082D02*
X112082D01*
X58082D02*
Y377670D01*
D15*
X306920Y359750D02*
Y372250D01*
X324920Y359750D02*
Y372250D01*
X288180Y360260D02*
Y371260D01*
X306180Y360260D02*
Y371260D01*
X488000Y357500D02*
Y368500D01*
X472000Y357500D02*
Y368500D01*
X399000Y350500D02*
Y403000D01*
X376000D02*
X399000D01*
X376000Y335000D02*
X383500D01*
X399000Y350500D01*
X331000D02*
X346500Y335000D01*
X354000D01*
X331000Y403000D02*
X354000D01*
X331000Y350500D02*
Y403000D01*
X467525Y354475D02*
Y389525D01*
X402475Y354475D02*
X467525D01*
X402475D02*
Y389525D01*
X467525D01*
X-17000Y130424D02*
X30000D01*
Y50424D02*
Y130424D01*
X-17000Y50424D02*
X30000D01*
X491000Y355500D02*
Y366500D01*
X509000Y355500D02*
Y366500D01*
D16*
X294614Y239700D02*
X295071Y240614D01*
X309701Y220218D02*
Y221132D01*
X525069Y241808D02*
X525526Y240436D01*
X293699Y313715D02*
X294614Y314630D01*
X511962Y7645D02*
X512317Y8000D01*
X307873Y222478D02*
X309244Y222021D01*
X304240Y243789D02*
X304697Y247878D01*
X531698Y209118D02*
X533045Y209575D01*
X530327Y158318D02*
X531698D01*
X294156Y110515D02*
X295071Y111429D01*
X300786Y212928D02*
Y222478D01*
X503453Y292125D02*
X503707Y291312D01*
X528066Y160147D02*
X528523Y159232D01*
X524612Y136474D02*
X525069Y137845D01*
X533070Y234975D02*
X533959Y235890D01*
X304418Y166420D02*
Y167335D01*
X289186Y73443D02*
X289745Y73722D01*
X294614Y187630D02*
X295071Y188544D01*
X505358Y316293D02*
X506171Y316572D01*
X304240Y296875D02*
X305155Y298221D01*
X533501Y116992D02*
X533958Y116077D01*
X310159Y135458D02*
Y145008D01*
X295528Y163246D02*
Y165506D01*
X310616Y169138D02*
X311505D01*
X308787Y313715D02*
X309701Y315087D01*
X506704Y291033D02*
X507263Y290753D01*
X289153Y45948D02*
X293242D01*
X309244Y213385D02*
X309701Y213842D01*
X306984Y289128D02*
X308330Y289585D01*
X528066Y134188D02*
X534416D01*
X289153Y261188D02*
Y270738D01*
X295782Y21005D02*
X296239Y19634D01*
X305155Y190373D02*
X306526Y189916D01*
X509168Y292125D02*
Y293217D01*
X524155Y217322D02*
X524612Y216408D01*
X532751Y71384D02*
X533285Y71663D01*
X532472Y71130D02*
X532751Y71384D01*
X303961Y144094D02*
X304418Y143205D01*
X289153Y135458D02*
Y145008D01*
X292328Y212928D02*
X293699Y213385D01*
X505637Y314489D02*
X506983D01*
X295071Y291414D02*
X295528Y292786D01*
X292184Y79056D02*
X292743Y79336D01*
X308330Y115062D02*
X308787Y113715D01*
X505637Y263550D02*
X506983D01*
X533502Y243611D02*
X533959Y242722D01*
X288035Y29006D02*
X296239D01*
X308330Y195351D02*
X309244Y194462D01*
X508889Y316852D02*
X509168Y317665D01*
X518694Y134188D02*
Y143738D01*
X513410Y118338D02*
X514324Y117881D01*
X300786Y169138D02*
X302615D01*
X293022Y74002D02*
X293276Y74814D01*
X504799Y288696D02*
X505637Y288950D01*
X304240Y321005D02*
X305155Y322351D01*
X532155Y182448D02*
Y191998D01*
X512673Y8737D02*
Y9474D01*
X293699Y247421D02*
X294614Y246532D01*
X308330Y218846D02*
X309244Y219303D01*
X503453Y259740D02*
Y261645D01*
X293699Y322351D02*
X294614Y321462D01*
X309244Y222021D02*
X309701Y221132D01*
X293022Y76719D02*
X293276Y75907D01*
X507796Y288696D02*
X508355Y288417D01*
X309701Y321005D02*
X310159Y318719D01*
X518236Y182448D02*
Y191998D01*
X515086Y6553D02*
X521639D01*
X293699Y144551D02*
X294614Y143662D01*
X289153Y247878D02*
X292328D01*
X308787Y217932D02*
X309701Y217043D01*
X524612Y242722D02*
X525069Y241808D01*
X292328Y313258D02*
X293699Y313715D01*
X507593Y7289D02*
X510870D01*
X298525Y36398D02*
X302157Y45948D01*
X308787Y244246D02*
X309701Y243332D01*
X528955Y209575D02*
X530327Y209118D01*
X533045Y158775D02*
X533959Y159690D01*
X292785Y110058D02*
X294156Y110515D01*
X299414Y221132D02*
X300786Y222478D01*
X505891Y292938D02*
X506171Y293751D01*
X525069Y161975D02*
Y164236D01*
X524155Y135559D02*
X524612Y136474D01*
X534416Y237261D02*
Y237718D01*
X308330Y167335D02*
X309244Y168681D01*
X288374Y73443D02*
X289186D01*
X293699Y186715D02*
X294614Y187630D01*
X503453Y317944D02*
X503707Y317106D01*
X303783Y294589D02*
X304240Y296875D01*
X533958Y116077D02*
X534416Y114706D01*
X308787Y143662D02*
X310159Y145008D01*
X289153Y159588D02*
Y169138D01*
X311505Y159588D02*
X312876Y160045D01*
X307415Y313258D02*
X308787Y313715D01*
X508634Y291033D02*
X508889Y291312D01*
X315620Y36398D02*
X317880Y45948D01*
X304697Y213385D02*
X306069Y212928D01*
X306984Y295046D02*
X308330Y294589D01*
X533959Y141020D02*
Y141935D01*
X289153Y270738D02*
X292328D01*
X294411Y21920D02*
X295325Y21462D01*
X304240Y191262D02*
X305155Y190373D01*
X507263Y294589D02*
X508076D01*
X524612Y216408D02*
X525069Y215036D01*
X533285Y71663D02*
X534098D01*
X529475Y70291D02*
X529729Y71130D01*
X303961Y141376D02*
X304418Y142290D01*
X292463Y77253D02*
X293022Y76719D01*
X292328Y222478D02*
X293699Y222021D01*
X508889Y313397D02*
X509168Y312584D01*
X294614Y290500D02*
X295071Y291414D01*
X292743Y79336D02*
X293022Y79615D01*
X308330Y111429D02*
X308787Y112801D01*
X505358Y291312D02*
X505637Y291846D01*
X531241Y244068D02*
X532156D01*
X294614Y45491D02*
X295071Y45034D01*
X306984Y195808D02*
X308330Y195351D01*
X508355Y316572D02*
X508889Y316852D01*
X529412Y143281D02*
X530327Y143738D01*
X515238Y116992D02*
X515670Y116077D01*
X303783Y264388D02*
X310616D01*
X293276Y67829D02*
Y71639D01*
X506983Y288950D02*
X507796Y288696D01*
X300786Y313258D02*
Y322808D01*
X527608Y185648D02*
X534416D01*
X507593Y10921D02*
X510870D01*
X289153Y145008D02*
X292328D01*
X295528Y43230D02*
Y44145D01*
X309244Y191262D02*
X309701Y192633D01*
X533045Y143281D02*
X533502Y142824D01*
X510692Y117881D02*
X511581Y118338D01*
X292328Y270738D02*
X293699Y270281D01*
X287561Y69734D02*
X293276D01*
X508355Y288417D02*
X508889Y287858D01*
X298525Y321005D02*
X299414Y321462D01*
X522782Y182905D02*
X523697Y183820D01*
X512673Y4724D02*
Y5816D01*
X294614Y143662D02*
X295071Y142748D01*
X289153Y238328D02*
X292328D01*
X304240Y217043D02*
X305155Y217932D01*
X525069Y236804D02*
X525526Y238176D01*
X295071Y315544D02*
X295528Y316916D01*
X510870Y7289D02*
X511962Y6908D01*
X305612Y115976D02*
X308330Y119608D01*
X304240Y243789D02*
X304697Y244246D01*
X528523Y210032D02*
X528955Y209575D01*
X533959Y163322D02*
X534416Y161975D01*
X290067Y110515D02*
X291413Y110058D01*
X298525Y246075D02*
X299414Y246532D01*
X506704Y294310D02*
X507263Y294589D01*
X524612Y165608D02*
X525069Y164236D01*
X523240Y134645D02*
X524155Y135559D01*
X531241Y234518D02*
X531698D01*
X309244Y168681D02*
X310616Y169138D01*
X288492Y21920D02*
X289407D01*
X289153Y186258D02*
X292328D01*
X506171Y316572D02*
X506704Y317106D01*
X303783Y292328D02*
X304240Y293675D01*
X533958Y111074D02*
X534416Y112445D01*
X307873Y143205D02*
X308787Y143662D01*
X289153Y169138D02*
X292328D01*
X310616Y159588D02*
X311505D01*
X303783Y317373D02*
X304240Y315087D01*
X508076Y290753D02*
X508634Y291033D01*
X307873Y212928D02*
X309244Y213385D01*
X308330Y289585D02*
X309244Y290500D01*
X524155Y159690D02*
X524612Y160604D01*
X295325Y21462D02*
X295782Y21005D01*
X303783Y193091D02*
X304240Y194462D01*
X504799Y291033D02*
X505358Y291312D01*
X525069Y212776D02*
Y215036D01*
X534098Y71663D02*
X534656Y71384D01*
X529475Y67853D02*
Y70291D01*
X303072Y140004D02*
X303961Y141376D01*
X291371Y76999D02*
X291930Y77253D01*
X289153Y212928D02*
X292328D01*
X509168Y310679D02*
Y312584D01*
X293699Y289585D02*
X294614Y290500D01*
X529475Y75371D02*
X535190D01*
X291650Y79056D02*
X292184D01*
X307415Y110515D02*
X308330Y111429D01*
X509168Y317665D02*
Y318198D01*
X505637Y291846D02*
X505891Y292938D01*
X529475Y73466D02*
Y77276D01*
X295071Y45034D02*
X295528Y44145D01*
X306526Y195808D02*
X306984D01*
X508076Y319569D02*
X508889Y319036D01*
X532155Y143738D02*
X533045Y143281D01*
X509320Y111074D02*
X509777Y110159D01*
X292328Y261188D02*
X293699Y261645D01*
X505637Y293497D02*
X505891Y292404D01*
X295071Y42316D02*
X295528Y43230D01*
X309244Y188087D02*
X309701Y190373D01*
X530327Y143738D02*
X532155D01*
X509777Y116992D02*
X510692Y117881D01*
X295528Y264846D02*
Y267106D01*
X289407Y21920D02*
X290321Y21462D01*
X307415Y218389D02*
X308787Y217932D01*
X508889Y287858D02*
X509168Y287045D01*
X523698Y243611D02*
X524612Y242722D01*
X309701Y315087D02*
X310159Y317373D01*
X521411Y182448D02*
X522782Y182905D01*
X295071Y142748D02*
X295528Y141376D01*
X289153Y238328D02*
Y247878D01*
X305155Y217932D02*
X306526Y218389D01*
X524612Y235890D02*
X525069Y236804D01*
X294614Y314630D02*
X295071Y315544D01*
X523240Y158775D02*
X524155Y159690D01*
X303326Y119608D02*
X308330D01*
X304697Y244246D02*
X306069Y244703D01*
X528066Y210947D02*
X528523Y210032D01*
X534416Y161061D02*
Y161975D01*
X289610Y110972D02*
X290067Y110515D01*
X300786Y238328D02*
Y247878D01*
X506983Y314489D02*
X507796Y314235D01*
X523697Y183820D02*
X524154Y184734D01*
X523240Y143281D02*
X524155Y142392D01*
X533070Y239979D02*
X533959Y239065D01*
X307873Y165049D02*
X308330Y167335D01*
X292125Y21462D02*
X293039Y21920D01*
X289153Y186258D02*
Y195808D01*
X505079Y316293D02*
X505358D01*
X304240Y293675D02*
X305155Y294589D01*
X533501Y110159D02*
X533958Y111074D01*
X512317Y6553D02*
X512673Y5816D01*
X295071Y161874D02*
X295528Y163246D01*
X307873Y163703D02*
X308330Y161417D01*
X304240Y315087D02*
X305155Y313715D01*
X506171Y291566D02*
X506704Y291033D01*
X313333Y45948D02*
X315620Y36398D01*
X304240Y213842D02*
X304697Y213385D01*
X305155Y294589D02*
X306526Y295046D01*
X524155Y166522D02*
X524612Y165608D01*
X286689Y15544D02*
X296239D01*
X304240Y194462D02*
X305155Y195351D01*
X504799Y294310D02*
X505358Y294030D01*
X524612Y211404D02*
X525069Y212776D01*
X534656Y71384D02*
X534910Y71130D01*
X528523Y237718D02*
X528981Y235890D01*
X298525Y135458D02*
X303072Y140004D01*
X291117Y76719D02*
X291371Y76999D01*
X289153Y222478D02*
X292328D01*
X504266Y313956D02*
X504799Y314235D01*
X292328Y289128D02*
X293699Y289585D01*
X529475Y79080D02*
X535190D01*
X290558Y80428D02*
Y82892D01*
X308787Y112801D02*
Y113715D01*
X505891Y292404D02*
X506171Y291566D01*
X528040Y108788D02*
X531215D01*
X510870Y7289D02*
X511962Y7645D01*
X295528Y241986D02*
Y244246D01*
X304697Y222021D02*
X306069Y222478D01*
X503707Y262458D02*
X504266Y263017D01*
X294614Y321462D02*
X295071Y320548D01*
X509777Y110159D02*
X510692Y109245D01*
X309701Y243332D02*
X310159Y241986D01*
X309701Y291871D02*
Y292328D01*
X533959Y159690D02*
X534416Y161061D01*
X298525Y110058D02*
X299414Y110972D01*
X300786Y186258D02*
Y195808D01*
X503707Y291312D02*
X504266Y291033D01*
X528523Y214579D02*
X528955Y218668D01*
X531100Y71663D02*
X531659Y71384D01*
X528523Y237718D02*
X528981Y239065D01*
X302615Y145008D02*
X303504Y144551D01*
X292463Y73443D02*
X293022Y74002D01*
X293699Y195351D02*
X294614Y194462D01*
X503453Y310679D02*
Y312584D01*
X299414Y297332D02*
X300786Y298678D01*
X518693Y118338D02*
X525043Y108788D01*
X294614Y160959D02*
X295071Y161874D01*
X518236Y182448D02*
X521411D01*
X309244Y160045D02*
X310616Y159588D01*
X295528Y139115D02*
Y141376D01*
X293699Y222021D02*
X294614Y221132D01*
X523698Y234975D02*
X524612Y235890D01*
X289153Y313258D02*
X292328D01*
X521869Y158318D02*
X523240Y158775D01*
X305612Y115976D02*
X306984D01*
X306069Y244703D02*
X307415D01*
X530327Y209118D02*
X531698D01*
X529870Y239979D02*
X531241Y240436D01*
X289153Y111887D02*
X289610Y110972D01*
X299414Y246532D02*
X300786Y247878D01*
X507796Y314235D02*
X508355Y313956D01*
X524612Y160604D02*
X525069Y161975D01*
X524155Y142392D02*
X524612Y141478D01*
X513410Y108788D02*
X514324Y109245D01*
X303961Y168224D02*
X304418Y167335D01*
X293039Y21920D02*
X294411D01*
X289153Y195808D02*
X292328D01*
X503707Y319036D02*
X504266Y319569D01*
X308787Y298221D02*
X309244Y297332D01*
X532587Y109245D02*
X533501Y110159D01*
X512317Y4013D02*
X512673Y4724D01*
X292328Y238328D02*
X293699Y238785D01*
X308330Y161417D02*
X309244Y160045D01*
X305155Y313715D02*
X306526Y313258D01*
X511962Y3632D02*
X512317Y4013D01*
X311073Y36398D02*
X313333Y45948D01*
X306069Y212928D02*
X307873D01*
X306526Y295046D02*
X306984D01*
X528955Y167868D02*
X533959D01*
X296239Y15544D02*
Y19634D01*
X303783Y192633D02*
X304240Y191262D01*
X503707Y294030D02*
X504266Y294310D01*
X528955Y215036D02*
X530327Y215493D01*
X534910Y71130D02*
X535190Y70291D01*
X528981Y235890D02*
X529870Y234975D01*
X298983Y142748D02*
Y143205D01*
X291930Y77253D02*
X292463D01*
X289153Y212928D02*
Y222478D01*
X504799Y314235D02*
X505637Y314489D01*
X289153Y289128D02*
Y298678D01*
X529475Y79080D02*
X535190Y82915D01*
X287561Y82892D02*
X293276D01*
X306069Y110058D02*
X307415Y110515D01*
X294614Y269392D02*
X295071Y268478D01*
X290778Y21005D02*
X291236Y19634D01*
X307873Y163703D02*
Y165049D01*
X503453Y285140D02*
X509168D01*
X519151Y234518D02*
Y244068D01*
X303783Y318719D02*
X304240Y321005D01*
X524154Y189738D02*
X524611Y188366D01*
X289153Y159588D02*
X292328D01*
X295071Y137744D02*
X295528Y139115D01*
X294614Y221132D02*
X295071Y220218D01*
X522326Y234518D02*
X523698Y234975D01*
X289153Y298678D02*
X292328D01*
X518694Y158318D02*
X521869D01*
X293276Y80428D02*
Y82892D01*
X303326Y110515D02*
X304697Y110058D01*
X307415Y244703D02*
X308787Y244246D01*
X521869Y218668D02*
X523240Y218211D01*
X531698Y240436D02*
X533070Y239979D01*
X291413Y110058D02*
X292785D01*
X300786Y261188D02*
Y270738D01*
X506983Y317944D02*
Y318198D01*
X524154Y184734D02*
X524611Y186105D01*
X524612Y141478D02*
X525069Y140106D01*
X514324Y109245D02*
X515238Y110159D01*
X298983Y166878D02*
Y167335D01*
X287603Y21462D02*
X288492Y21920D01*
X295528Y112801D02*
Y113715D01*
X503453Y317944D02*
Y318198D01*
X307415Y298678D02*
X308787Y298221D01*
X531215Y108788D02*
X532587Y109245D01*
X511962Y6908D02*
X512317Y6553D01*
X293699Y238785D02*
X294614Y239700D01*
X304240Y221132D02*
X304697Y222021D01*
X306526Y313258D02*
X307415D01*
X510870Y3276D02*
X511962Y3632D01*
X308787Y45948D02*
X311073Y36398D01*
X309701Y217043D02*
X310159Y216128D01*
X309244Y293675D02*
X309701Y292328D01*
X531698Y158318D02*
X533045Y158775D01*
X298983Y112344D02*
X299414Y111887D01*
X303783Y192633D02*
Y193091D01*
X503453Y293217D02*
X503707Y294030D01*
X531698Y215493D02*
X533045Y215036D01*
X529729Y71130D02*
X530008Y71384D01*
X528523Y237718D02*
Y239979D01*
X298983Y143205D02*
X299414Y144094D01*
X287840Y74002D02*
X288374Y73443D01*
X292328Y186258D02*
X293699Y186715D01*
X503453Y310679D02*
X509168D01*
X289153Y289128D02*
X292328D01*
X529475Y82915D02*
X535190D01*
X293699Y160045D02*
X294614Y160959D01*
X312876Y160045D02*
X313791Y161417D01*
X505358Y294030D02*
X505637Y293497D01*
X294614Y41859D02*
X295071Y42316D01*
X309244Y194462D02*
X309701Y192633D01*
X533502Y142824D02*
X533959Y141935D01*
X509320Y116077D02*
X509777Y116992D01*
X295071Y263474D02*
X295528Y264846D01*
X290321Y21462D02*
X290778Y21005D01*
X304240Y220218D02*
X304697Y219303D01*
X509168Y285140D02*
Y287045D01*
X519151Y244068D02*
X522326D01*
X310159Y317373D02*
Y318719D01*
X313791Y161417D02*
X314248Y163703D01*
X506983Y263550D02*
X507796Y263296D01*
X292125Y24917D02*
Y33096D01*
X303783Y216128D02*
X304240Y217043D01*
X295528Y316916D02*
Y319176D01*
X533502Y140106D02*
X533959Y141020D01*
X508863Y112445D02*
X509320Y111074D01*
X295071Y268478D02*
X295528Y267106D01*
X291693Y21005D02*
X292125Y21462D01*
X308330Y186715D02*
X309244Y188087D01*
X508076Y294589D02*
X508634Y294310D01*
X525526Y238176D02*
Y240436D01*
X303783Y317373D02*
Y318719D01*
X521411Y191998D02*
X522782Y191541D01*
X303961Y165506D02*
X304418Y166420D01*
X294614Y136829D02*
X295071Y137744D01*
Y220218D02*
X295528Y218846D01*
X519151Y234518D02*
X522326D01*
X292328Y298678D02*
X293699Y298221D01*
X518694Y167868D02*
X521869D01*
X287561Y79056D02*
X290558Y80961D01*
X302869Y110972D02*
X303326Y110515D01*
X304697Y247878D02*
X309244D01*
X518694Y209118D02*
Y218668D01*
X531241Y240436D02*
X531698D01*
X298525Y268935D02*
X299414Y269392D01*
X506704Y317106D02*
X506983Y317944D01*
X528523Y159232D02*
X528955Y158775D01*
X521869Y134188D02*
X523240Y134645D01*
X515238Y110159D02*
X515670Y111074D01*
X298983Y167335D02*
X299414Y168224D01*
X286689Y15544D02*
Y19634D01*
X294614Y115519D02*
X295071Y115062D01*
X505358Y319849D02*
X506171Y319569D01*
X299414Y321462D02*
X300786Y322808D01*
X528040Y118338D02*
X531215D01*
X512317Y8000D02*
X512673Y8737D01*
X295071Y240614D02*
X295528Y241986D01*
X306526Y218389D02*
X308330Y218846D01*
X292328Y322808D02*
X293699Y322351D01*
X507593Y3276D02*
X510870D01*
X302157Y45948D02*
X305790Y36398D01*
X299872Y39598D02*
X304418D01*
X305155Y289585D02*
X306526Y289128D01*
X528955Y158775D02*
X530327Y158318D01*
X299414Y110972D02*
Y111887D01*
Y194462D02*
X300786Y195808D01*
X504266Y291033D02*
X504799D01*
X530327Y215493D02*
X531698D01*
X530008Y71384D02*
X530567Y71663D01*
X528981Y239065D02*
X529870Y239979D01*
X299872Y144551D02*
X300786Y145008D01*
X287561Y74814D02*
X287840Y74002D01*
X292328Y195808D02*
X293699Y195351D01*
X503453Y312584D02*
X503707Y313397D01*
X309244Y290500D02*
X309701Y291871D01*
X518693Y108788D02*
Y118338D01*
X292328Y159588D02*
X293699Y160045D01*
X507593Y3276D02*
Y10921D01*
X289153Y41401D02*
X293242D01*
X309701Y190373D02*
Y192633D01*
X528523Y141478D02*
Y141935D01*
X508863Y114706D02*
X509320Y116077D01*
X303783Y240157D02*
X304240Y239242D01*
X521869Y209118D02*
X523240Y209575D01*
X533502Y163779D02*
X533959Y163322D01*
X295071Y111429D02*
X295528Y112801D01*
X298525Y220675D02*
X299414Y221132D01*
X506171Y293751D02*
X506704Y294310D01*
X524155Y210490D02*
X524612Y211404D01*
X535190Y67853D02*
Y70291D01*
X531698Y234518D02*
X533070Y234975D01*
X300786Y145008D02*
X302615D01*
X289745Y73722D02*
X290025Y74002D01*
X295071Y188544D02*
X295528Y189916D01*
X503707Y317106D02*
X504266Y316572D01*
X305155Y298221D02*
X306526Y298678D01*
X532587Y117881D02*
X533501Y116992D01*
X511581Y118338D02*
X513410D01*
X295071Y166878D02*
X295528Y165506D01*
X314248Y163703D02*
Y165049D01*
X509168Y259740D02*
Y261645D01*
X293242Y41401D02*
X294614Y41859D01*
X303783Y214757D02*
X304240Y213842D01*
Y290500D02*
X305155Y289585D01*
X528955Y142824D02*
X529412Y143281D01*
X289153Y261188D02*
X292328D01*
X291236Y15544D02*
Y19634D01*
X306069Y222478D02*
X307873D01*
X507263Y290753D02*
X508076D01*
X523240Y218211D02*
X524155Y217322D01*
X531913Y71130D02*
X532192Y70291D01*
X531659Y71384D02*
X531913Y71130D01*
X303504Y144551D02*
X303961Y144094D01*
X518694Y143738D02*
X521869D01*
X515670Y111074D02*
Y112445D01*
X299872Y168681D02*
X300786Y169138D01*
X290279Y74535D02*
X290837Y76161D01*
X292328Y115976D02*
X295071Y119608D01*
X503453Y287045D02*
X503707Y287858D01*
X305155Y322351D02*
X306526Y322808D01*
X534416Y112445D02*
Y114706D01*
X510870Y10921D02*
X511962Y10566D01*
X292328Y247878D02*
X293699Y247421D01*
X304697Y219303D02*
X305612Y218846D01*
X503453Y261645D02*
X503707Y262458D01*
X295071Y320548D02*
X295528Y319176D01*
X510692Y109245D02*
X511581Y108788D01*
X309701Y239700D02*
X310159Y241071D01*
X306526Y289128D02*
X306984D01*
X531241Y164236D02*
X533959Y167868D01*
X298983Y111429D02*
X299414Y111887D01*
X298525Y194005D02*
X299414Y194462D01*
X504266Y294310D02*
X504799D01*
X528955Y218668D02*
X533502D01*
X532192Y70291D02*
X532472Y71130D01*
X533959Y239065D02*
X534416Y237718D01*
X299414Y144094D02*
X299872Y144551D01*
X287840Y76719D02*
X288374Y77253D01*
X295071Y193548D02*
X295528Y192176D01*
X503707Y313397D02*
X504266Y313956D01*
X300786Y289128D02*
Y298678D01*
X525043Y108788D02*
Y118338D01*
X293699Y168681D02*
X294614Y167792D01*
X311505Y169138D02*
X312876Y168681D01*
X507796Y263296D02*
X508355Y263017D01*
X289153Y36398D02*
Y45948D01*
X310159Y214757D02*
Y216128D01*
X303783Y292328D02*
Y294589D01*
X532613Y138734D02*
X533502Y140106D01*
X294614Y262560D02*
X295071Y263474D01*
X287146Y21005D02*
X287603Y21462D01*
X306984Y186258D02*
X308330Y186715D01*
X508634Y294310D02*
X508889Y294030D01*
X533959Y210490D02*
X534416Y211861D01*
X522782Y191541D02*
X523697Y190652D01*
X303072Y164135D02*
X303961Y165506D01*
X293699Y135915D02*
X294614Y136829D01*
X295528Y216586D02*
Y218846D01*
X522326Y244068D02*
X523698Y243611D01*
X293699Y298221D02*
X294614Y297332D01*
X521869Y167868D02*
X523240Y167411D01*
X293022Y79615D02*
X293276Y80428D01*
X302437Y111887D02*
X302869Y110972D01*
X304240Y239242D02*
X304697Y238785D01*
X518694Y218668D02*
X521869D01*
X528981Y242265D02*
X529870Y243611D01*
X299414Y269392D02*
X300786Y270738D01*
X506704Y319036D02*
X506983Y318198D01*
X503453Y265353D02*
Y269189D01*
X521869Y143738D02*
X523240Y143281D01*
X511581Y108788D02*
X513410D01*
X299414Y168224D02*
X299872Y168681D01*
X290837Y76161D02*
X291117Y76719D01*
X295071Y115062D02*
X295528Y113715D01*
X504266Y288417D02*
X504799Y288696D01*
X306526Y322808D02*
X307415D01*
X306984Y115976D02*
X307873Y115519D01*
X504266Y263017D02*
X504799Y263296D01*
X529870Y243611D02*
X531241Y244068D01*
X308330Y190373D02*
X309244Y191262D01*
X508355Y313956D02*
X508889Y313397D01*
X506171Y319569D02*
X506704Y319036D01*
X518694Y134188D02*
X521869D01*
X513410Y112445D02*
X515670D01*
X302615Y169138D02*
X303504Y168681D01*
X293276Y74814D02*
Y75907D01*
X293699Y115976D02*
X294614Y115519D01*
X503707Y287858D02*
X504266Y288417D01*
X308787Y322351D02*
X309701Y321005D01*
X523697Y190652D02*
X524154Y189738D01*
X511962Y10566D02*
X512317Y10185D01*
X294614Y246532D02*
X295071Y245618D01*
X304240Y220218D02*
Y221132D01*
X503453Y269189D02*
X509168Y266446D01*
X289153Y313258D02*
Y322808D01*
X310159Y241071D02*
Y241986D01*
X307415Y238328D02*
X308787Y238785D01*
X523240Y209575D02*
X524155Y210490D01*
X531241Y164236D02*
X532613D01*
X298525Y111887D02*
X298983Y111429D01*
X306069Y186258D02*
X306984D01*
X503453Y292125D02*
Y293217D01*
X528523Y214579D02*
X528955Y215036D01*
X532192Y67853D02*
Y70291D01*
X529870Y234975D02*
X531241Y234518D01*
X298525Y135458D02*
X304875D01*
X287561Y74814D02*
Y75907D01*
X295528Y189916D02*
Y192176D01*
X503453Y318198D02*
X503707Y319036D01*
X298525Y296875D02*
X299414Y297332D01*
X528040Y108788D02*
Y118338D01*
X294614Y167792D02*
X295071Y166878D01*
X313791Y167335D02*
X314248Y165049D01*
X508355Y263017D02*
X508889Y262458D01*
X293242Y45948D02*
X294614Y45491D01*
X309701Y213842D02*
X310159Y214757D01*
X308330Y294589D02*
X309244Y293675D01*
X528066Y134188D02*
X532613Y138734D01*
X293699Y261645D02*
X294614Y262560D01*
X291236Y19634D02*
X291693Y21005D01*
X304697Y186715D02*
X306069Y186258D01*
X508889Y291312D02*
X509168Y292125D01*
X533959Y214122D02*
X534416Y212776D01*
X523240Y167411D02*
X524155Y166522D01*
X524611Y186105D02*
Y188366D01*
X298525Y159588D02*
X303072Y164135D01*
X292328Y135458D02*
X293699Y135915D01*
X295071Y215214D02*
X295528Y216586D01*
X303783Y264388D02*
X308330Y270738D01*
X294614Y297332D02*
X295071Y296418D01*
X518694Y158318D02*
Y167868D01*
X291117Y79336D02*
X291650Y79056D01*
X304697Y110058D02*
X306069D01*
Y238328D02*
X307415D01*
X533045Y209575D02*
X533959Y210490D01*
X528523Y239979D02*
X528981Y242265D01*
X306526Y189916D02*
X306984D01*
X506704Y319849D02*
X508076Y319569D01*
X504266D02*
X505358Y319849D01*
X292328Y145008D02*
X293699Y144551D01*
Y213385D02*
X294614Y214300D01*
X308787Y238785D02*
X309701Y239700D01*
X295528Y292786D02*
Y295046D01*
X290558Y80428D02*
X290837Y79615D01*
X307873Y115519D02*
X308330Y115062D01*
X504799Y263296D02*
X505637Y263550D01*
X532156Y244068D02*
X533502Y243611D01*
X290067Y119608D02*
X295071D01*
X306984Y189916D02*
X308330Y190373D01*
X508889Y319036D02*
X509168Y318198D01*
X505358Y319849D02*
X506704D01*
X525069Y137845D02*
Y140106D01*
X514324Y117881D02*
X515238Y116992D01*
X303504Y168681D02*
X303961Y168224D01*
X287561Y75907D02*
X287840Y76719D01*
X292328Y115976D02*
X293699D01*
X503453Y285140D02*
Y287045D01*
X307415Y322808D02*
X308787Y322351D01*
X527608Y185648D02*
X532155Y191998D01*
X512317Y10185D02*
X512673Y9474D01*
X295071Y245618D02*
X295528Y244246D01*
X309244Y219303D02*
X309701Y220218D01*
X503453Y259740D02*
X509168D01*
X289153Y322808D02*
X292328D01*
X305612Y218846D02*
X307415Y218389D01*
X304697Y238785D02*
X306069Y238328D01*
X518694Y209118D02*
X521869D01*
X532613Y164236D02*
X533502Y163779D01*
X298525Y111887D02*
X298983Y112344D01*
X305155Y195351D02*
X306526Y195808D01*
X505637Y288950D02*
X506983D01*
X534416Y211861D02*
Y212776D01*
X529475Y67853D02*
X535190D01*
X533959Y235890D02*
X534416Y237261D01*
X304418Y142290D02*
Y143205D01*
X290025Y74002D02*
X290279Y74535D01*
X294614Y194462D02*
X295071Y193548D01*
X504266Y316572D02*
X505079Y316293D01*
X306526Y298678D02*
X307415D01*
X531215Y118338D02*
X532587Y117881D01*
X508863Y112445D02*
Y114706D01*
X292328Y169138D02*
X293699Y168681D01*
X312876D02*
X313791Y167335D01*
X508889Y262458D02*
X509168Y261645D01*
X292328Y41401D02*
X295528Y36398D01*
X303783Y214757D02*
Y216128D01*
Y292328D02*
X304240Y290500D01*
X528523Y141935D02*
X528955Y142824D01*
X293699Y270281D02*
X294614Y269392D01*
X286689Y19634D02*
X287146Y21005D01*
X304240Y187630D02*
X304697Y186715D01*
X508889Y294030D02*
X509168Y293217D01*
X533045Y215036D02*
X533959Y214122D01*
X530567Y71663D02*
X531100D01*
X518236Y191998D02*
X521411D01*
X298525Y159588D02*
X304875D01*
X289153Y135458D02*
X292328D01*
X294614Y214300D02*
X295071Y215214D01*
X308330Y261188D02*
Y270738D01*
X295071Y296418D02*
X295528Y295046D01*
X290837Y79615D02*
X291117Y79336D01*
D17*
X503637Y54940D02*
X510567D01*
X313115Y55272D02*
X320045D01*
Y96796D01*
X313115D02*
X320045D01*
X503637Y96464D02*
X510567D01*
X503637Y54940D02*
Y96464D01*
D18*
X233259Y364552D02*
Y372170D01*
X221833D01*
Y364552D01*
X227546Y372170D02*
Y368361D01*
X221833Y353126D02*
Y360743D01*
X229450Y353126D01*
X231355D01*
X233259Y355030D01*
Y358839D01*
X231355Y360743D01*
X221833Y341699D02*
Y349317D01*
X229450Y341699D01*
X231355D01*
X233259Y343604D01*
Y347413D01*
X231355Y349317D01*
X227546Y337891D02*
Y330273D01*
X223737Y326464D02*
X221833Y324560D01*
Y320751D01*
X223737Y318847D01*
X231355D01*
X233259Y320751D01*
Y324560D01*
X231355Y326464D01*
X229450D01*
X227546Y324560D01*
Y318847D01*
X231355Y315038D02*
X233259Y313134D01*
Y309325D01*
X231355Y307421D01*
X223737D01*
X221833Y309325D01*
Y313134D01*
X223737Y315038D01*
X231355D01*
Y303612D02*
X233259Y301707D01*
Y297899D01*
X231355Y295994D01*
X223737D01*
X221833Y297899D01*
Y301707D01*
X223737Y303612D01*
X231355D01*
X221833Y292185D02*
X233259D01*
X229450Y288377D01*
X233259Y284568D01*
X221833D01*
X231355Y280759D02*
X233259Y278855D01*
Y275046D01*
X231355Y273142D01*
X229450D01*
X227546Y275046D01*
Y276950D01*
Y275046D01*
X225642Y273142D01*
X223737D01*
X221833Y275046D01*
Y278855D01*
X223737Y280759D01*
X231355Y269333D02*
X233259Y267428D01*
Y263620D01*
X231355Y261715D01*
X223737D01*
X221833Y263620D01*
Y267428D01*
X223737Y269333D01*
X231355D01*
Y250289D02*
X233259Y252193D01*
Y256002D01*
X231355Y257906D01*
X229450D01*
X227546Y256002D01*
Y252193D01*
X225642Y250289D01*
X223737D01*
X221833Y252193D01*
Y256002D01*
X223737Y257906D01*
X370448Y315276D02*
X360000D01*
X365224Y320500D02*
Y310052D01*
M02*
