M48
;Layer_Color=9474304
;FILE_FORMAT=4:4
METRIC
;TYPE=PLATED
T01F00S00C0.3000
T02F00S00C0.9150
%
T01
X00266410Y00299880
X00285410Y00298880
X00305410
Y00318880
Y00338880
Y00358880
Y00378880
X00325410Y00368880
Y00388880
Y00348880
Y00328880
Y00308880
X00345410Y00338880
Y00358880
X00380410
Y00308880
X00430410
X00480410
Y00358880
X00430410
X00535410Y00348880
X00690620Y00346880
X00692620Y00375880
X00690620Y00404880
X00691620Y00432880
X00690620Y00463880
X00692827Y00492880
X00677050Y00586540
X00572410Y00484880
X00557416Y00455476
X00534810Y00502720
X00480410Y00508880
Y00558880
X00430410
Y00608880
X00480410
Y00458880
X00430410
Y00408880
X00480410
X00430410Y00508880
X00380410
Y00558880
X00330410
Y00608880
X00380410
X00271412Y00603050
X00271395Y00577755
X00271666Y00527358
X00270904Y00501196
X00330410Y00508880
Y00458880
X00380410
Y00408880
X00305410Y00398880
X00285410
X00265410
T02
X00591690Y00269040
Y00294440
Y00319840
Y00345240
Y00370640
Y00396040
X00744090
Y00370640
Y00345240
Y00319840
Y00294440
X00744057Y00269040
X00744090Y00421440
Y00446840
Y00472240
Y00497640
Y00523040
Y00548440
Y00573840
X00776410Y00572880
X00776426Y00549258
Y00523604
Y00497950
X00591690Y00497640
Y00523040
Y00548440
Y00573840
Y00472240
Y00446840
Y00421440
X00566410Y00658880
X00542410
M30
